G75*
%MOIN*%
%OFA0B0*%
%FSLAX24Y24*%
%IPPOS*%
%LPD*%
%AMOC8*
5,1,8,0,0,1.08239X$1,22.5*
%
%ADD10C,0.0040*%
%ADD11C,0.0030*%
%ADD12C,0.0080*%
%ADD13R,0.0100X0.0400*%
%ADD14C,0.0010*%
%ADD15C,0.0060*%
%ADD16R,0.0337X0.0000*%
%ADD17R,0.0337X0.0000*%
%ADD18R,0.0344X0.0001*%
%ADD19R,0.0348X0.0000*%
%ADD20R,0.0347X0.0000*%
%ADD21R,0.0350X0.0000*%
%ADD22R,0.0350X0.0000*%
%ADD23R,0.0352X0.0001*%
%ADD24R,0.0355X0.0000*%
%ADD25R,0.0354X0.0000*%
%ADD26R,0.0356X0.0001*%
%ADD27R,0.0359X0.0000*%
%ADD28R,0.0360X0.0000*%
%ADD29R,0.0361X0.0001*%
%ADD30R,0.0363X0.0000*%
%ADD31R,0.0362X0.0000*%
%ADD32R,0.0365X0.0001*%
%ADD33R,0.0364X0.0001*%
%ADD34R,0.0365X0.0000*%
%ADD35R,0.0366X0.0000*%
%ADD36R,0.0366X0.0000*%
%ADD37R,0.0367X0.0001*%
%ADD38R,0.0369X0.0000*%
%ADD39R,0.0370X0.0001*%
%ADD40R,0.0369X0.0001*%
%ADD41R,0.0370X0.0000*%
%ADD42R,0.0371X0.0000*%
%ADD43R,0.0371X0.0000*%
%ADD44R,0.0372X0.0001*%
%ADD45R,0.0372X0.0001*%
%ADD46R,0.0373X0.0000*%
%ADD47R,0.0373X0.0000*%
%ADD48R,0.0374X0.0001*%
%ADD49R,0.0374X0.0001*%
%ADD50R,0.0375X0.0000*%
%ADD51R,0.0374X0.0000*%
%ADD52R,0.0375X0.0000*%
%ADD53R,0.0375X0.0000*%
%ADD54R,0.0375X0.0001*%
%ADD55R,0.0376X0.0001*%
%ADD56R,0.0376X0.0000*%
%ADD57R,0.0377X0.0001*%
%ADD58R,0.0376X0.0001*%
%ADD59R,0.0377X0.0000*%
%ADD60R,0.0378X0.0000*%
%ADD61R,0.0378X0.0000*%
%ADD62R,0.0379X0.0001*%
%ADD63R,0.0379X0.0000*%
%ADD64R,0.0379X0.0000*%
%ADD65R,0.0380X0.0001*%
%ADD66R,0.0379X0.0001*%
%ADD67R,0.0380X0.0000*%
%ADD68R,0.0379X0.0000*%
%ADD69R,0.0380X0.0000*%
%ADD70R,0.0380X0.0000*%
%ADD71R,0.0380X0.0001*%
%ADD72R,0.0381X0.0001*%
%ADD73R,0.0381X0.0000*%
%ADD74R,0.0381X0.0001*%
%ADD75R,0.0381X0.0001*%
%ADD76R,0.0381X0.0000*%
%ADD77R,0.0382X0.0001*%
%ADD78R,0.0381X0.0001*%
%ADD79R,0.0382X0.0000*%
%ADD80R,0.0382X0.0000*%
%ADD81R,0.0382X0.0001*%
%ADD82R,0.0382X0.0000*%
%ADD83R,0.0383X0.0000*%
%ADD84R,0.0383X0.0001*%
%ADD85R,0.0383X0.0001*%
%ADD86R,0.0383X0.0000*%
%ADD87R,0.0382X0.0001*%
%ADD88R,0.0379X0.0001*%
%ADD89R,0.0381X0.0000*%
%ADD90R,0.0378X0.0001*%
%ADD91R,0.0377X0.0000*%
%ADD92R,0.0376X0.0000*%
%ADD93R,0.0374X0.0000*%
%ADD94R,0.0377X0.0001*%
%ADD95R,0.0372X0.0000*%
%ADD96R,0.0371X0.0001*%
%ADD97R,0.0376X0.0001*%
%ADD98R,0.0371X0.0000*%
%ADD99R,0.0376X0.0000*%
%ADD100R,0.0370X0.0000*%
%ADD101R,0.0369X0.0001*%
%ADD102R,0.0374X0.0001*%
%ADD103R,0.0368X0.0000*%
%ADD104R,0.0374X0.0000*%
%ADD105R,0.0367X0.0001*%
%ADD106R,0.0373X0.0001*%
%ADD107R,0.0366X0.0000*%
%ADD108R,0.0372X0.0000*%
%ADD109R,0.0365X0.0000*%
%ADD110R,0.0371X0.0000*%
%ADD111R,0.0364X0.0001*%
%ADD112R,0.0371X0.0001*%
%ADD113R,0.0362X0.0000*%
%ADD114R,0.0369X0.0000*%
%ADD115R,0.0360X0.0001*%
%ADD116R,0.0369X0.0001*%
%ADD117R,0.0359X0.0000*%
%ADD118R,0.0367X0.0000*%
%ADD119R,0.0357X0.0000*%
%ADD120R,0.0355X0.0001*%
%ADD121R,0.0365X0.0001*%
%ADD122R,0.0354X0.0000*%
%ADD123R,0.0364X0.0000*%
%ADD124R,0.0351X0.0001*%
%ADD125R,0.0363X0.0001*%
%ADD126R,0.0348X0.0000*%
%ADD127R,0.0361X0.0000*%
%ADD128R,0.0345X0.0000*%
%ADD129R,0.0340X0.0001*%
%ADD130R,0.0359X0.0001*%
%ADD131R,0.0258X0.0000*%
%ADD132R,0.0356X0.0000*%
%ADD133R,0.0257X0.0001*%
%ADD134R,0.0354X0.0001*%
%ADD135R,0.0257X0.0000*%
%ADD136R,0.0352X0.0000*%
%ADD137R,0.0347X0.0001*%
%ADD138R,0.0257X0.0000*%
%ADD139R,0.0344X0.0000*%
%ADD140R,0.0257X0.0001*%
%ADD141R,0.0338X0.0001*%
%ADD142R,0.0239X0.0000*%
%ADD143R,0.0256X0.0000*%
%ADD144R,0.0256X0.0001*%
%ADD145R,0.0239X0.0001*%
%ADD146R,0.0239X0.0001*%
%ADD147R,0.0256X0.0000*%
%ADD148R,0.0239X0.0000*%
%ADD149R,0.0256X0.0001*%
%ADD150R,0.0255X0.0000*%
%ADD151R,0.0238X0.0000*%
%ADD152R,0.0255X0.0001*%
%ADD153R,0.0238X0.0001*%
%ADD154R,0.0255X0.0000*%
%ADD155R,0.0255X0.0001*%
%ADD156R,0.0238X0.0001*%
%ADD157R,0.0238X0.0000*%
%ADD158R,0.0255X0.0000*%
%ADD159R,0.0238X0.0000*%
%ADD160R,0.0255X0.0001*%
%ADD161R,0.0238X0.0001*%
%ADD162R,0.0254X0.0000*%
%ADD163R,0.0254X0.0001*%
%ADD164R,0.0237X0.0000*%
%ADD165R,0.0254X0.0001*%
%ADD166R,0.0237X0.0001*%
%ADD167R,0.0254X0.0000*%
%ADD168R,0.0253X0.0000*%
%ADD169R,0.0236X0.0000*%
%ADD170R,0.0253X0.0001*%
%ADD171R,0.0236X0.0001*%
%ADD172R,0.0253X0.0000*%
%ADD173R,0.0253X0.0001*%
%ADD174R,0.0236X0.0001*%
%ADD175R,0.0236X0.0000*%
%ADD176R,0.0252X0.0001*%
%ADD177R,0.0252X0.0000*%
%ADD178R,0.0235X0.0000*%
%ADD179R,0.0235X0.0001*%
%ADD180R,0.0251X0.0000*%
%ADD181R,0.0251X0.0001*%
%ADD182R,0.0235X0.0001*%
%ADD183R,0.0235X0.0000*%
%ADD184R,0.0251X0.0001*%
%ADD185R,0.0251X0.0000*%
%ADD186R,0.0234X0.0000*%
%ADD187R,0.0250X0.0001*%
%ADD188R,0.0234X0.0001*%
%ADD189R,0.0250X0.0000*%
%ADD190R,0.0250X0.0000*%
%ADD191R,0.0234X0.0000*%
%ADD192R,0.0250X0.0001*%
%ADD193R,0.0234X0.0001*%
%ADD194R,0.0250X0.0001*%
%ADD195R,0.0250X0.0000*%
%ADD196R,0.0233X0.0000*%
%ADD197R,0.0249X0.0001*%
%ADD198R,0.0233X0.0001*%
%ADD199R,0.0249X0.0000*%
%ADD200R,0.0233X0.0001*%
%ADD201R,0.0233X0.0000*%
%ADD202R,0.0249X0.0000*%
%ADD203R,0.0249X0.0001*%
%ADD204R,0.0233X0.0000*%
%ADD205R,0.0248X0.0001*%
%ADD206R,0.0233X0.0001*%
%ADD207R,0.0248X0.0000*%
%ADD208R,0.0248X0.0001*%
%ADD209R,0.0232X0.0001*%
%ADD210R,0.0248X0.0000*%
%ADD211R,0.0232X0.0000*%
%ADD212R,0.0247X0.0000*%
%ADD213R,0.0231X0.0000*%
%ADD214R,0.0247X0.0001*%
%ADD215R,0.0231X0.0001*%
%ADD216R,0.0246X0.0001*%
%ADD217R,0.0246X0.0000*%
%ADD218R,0.0231X0.0000*%
%ADD219R,0.0231X0.0001*%
%ADD220R,0.0246X0.0000*%
%ADD221R,0.0246X0.0001*%
%ADD222R,0.0230X0.0000*%
%ADD223R,0.0245X0.0000*%
%ADD224R,0.0245X0.0001*%
%ADD225R,0.0230X0.0001*%
%ADD226R,0.0245X0.0001*%
%ADD227R,0.0230X0.0001*%
%ADD228R,0.0245X0.0000*%
%ADD229R,0.0230X0.0000*%
%ADD230R,0.0245X0.0000*%
%ADD231R,0.0229X0.0000*%
%ADD232R,0.0245X0.0001*%
%ADD233R,0.0229X0.0001*%
%ADD234R,0.0244X0.0000*%
%ADD235R,0.0244X0.0001*%
%ADD236R,0.0229X0.0001*%
%ADD237R,0.0229X0.0000*%
%ADD238R,0.0244X0.0000*%
%ADD239R,0.0228X0.0000*%
%ADD240R,0.0244X0.0001*%
%ADD241R,0.0228X0.0001*%
%ADD242R,0.0243X0.0000*%
%ADD243R,0.0243X0.0001*%
%ADD244R,0.0243X0.0000*%
%ADD245R,0.0228X0.0000*%
%ADD246R,0.0243X0.0001*%
%ADD247R,0.0228X0.0001*%
%ADD248R,0.0242X0.0000*%
%ADD249R,0.0227X0.0000*%
%ADD250R,0.0242X0.0001*%
%ADD251R,0.0227X0.0001*%
%ADD252R,0.0241X0.0000*%
%ADD253R,0.0241X0.0001*%
%ADD254R,0.0227X0.0001*%
%ADD255R,0.0227X0.0000*%
%ADD256R,0.0241X0.0001*%
%ADD257R,0.0241X0.0000*%
%ADD258R,0.0226X0.0000*%
%ADD259R,0.0226X0.0001*%
%ADD260R,0.0240X0.0000*%
%ADD261R,0.0240X0.0001*%
%ADD262R,0.0226X0.0001*%
%ADD263R,0.0240X0.0000*%
%ADD264R,0.0226X0.0000*%
%ADD265R,0.0240X0.0001*%
%ADD266R,0.0225X0.0000*%
%ADD267R,0.0240X0.0001*%
%ADD268R,0.0225X0.0001*%
%ADD269R,0.0240X0.0000*%
%ADD270R,0.0225X0.0000*%
%ADD271R,0.0225X0.0001*%
%ADD272R,0.0239X0.0001*%
%ADD273R,0.0239X0.0000*%
%ADD274R,0.0224X0.0000*%
%ADD275R,0.0224X0.0001*%
%ADD276R,0.0224X0.0001*%
%ADD277R,0.0224X0.0000*%
%ADD278R,0.0223X0.0000*%
%ADD279R,0.0237X0.0001*%
%ADD280R,0.0223X0.0001*%
%ADD281R,0.0237X0.0000*%
%ADD282R,0.0223X0.0001*%
%ADD283R,0.0223X0.0000*%
%ADD284R,0.0236X0.0000*%
%ADD285R,0.0222X0.0000*%
%ADD286R,0.0236X0.0001*%
%ADD287R,0.0222X0.0001*%
%ADD288R,0.0222X0.0000*%
%ADD289R,0.0222X0.0001*%
%ADD290R,0.0221X0.0000*%
%ADD291R,0.0235X0.0000*%
%ADD292R,0.0235X0.0001*%
%ADD293R,0.0221X0.0001*%
%ADD294R,0.0221X0.0001*%
%ADD295R,0.0221X0.0000*%
%ADD296R,0.0234X0.0000*%
%ADD297R,0.0220X0.0000*%
%ADD298R,0.0234X0.0001*%
%ADD299R,0.0220X0.0001*%
%ADD300R,0.0220X0.0001*%
%ADD301R,0.0220X0.0000*%
%ADD302R,0.0219X0.0000*%
%ADD303R,0.0219X0.0001*%
%ADD304R,0.0232X0.0000*%
%ADD305R,0.0232X0.0001*%
%ADD306R,0.0219X0.0000*%
%ADD307R,0.0219X0.0001*%
%ADD308R,0.0231X0.0000*%
%ADD309R,0.0218X0.0000*%
%ADD310R,0.0231X0.0001*%
%ADD311R,0.0218X0.0001*%
%ADD312R,0.0218X0.0001*%
%ADD313R,0.0218X0.0000*%
%ADD314R,0.0217X0.0000*%
%ADD315R,0.0217X0.0001*%
%ADD316R,0.0230X0.0000*%
%ADD317R,0.0230X0.0001*%
%ADD318R,0.0217X0.0001*%
%ADD319R,0.0217X0.0000*%
%ADD320R,0.0216X0.0000*%
%ADD321R,0.0229X0.0001*%
%ADD322R,0.0216X0.0001*%
%ADD323R,0.0229X0.0000*%
%ADD324R,0.0216X0.0000*%
%ADD325R,0.0216X0.0001*%
%ADD326R,0.0215X0.0000*%
%ADD327R,0.0227X0.0001*%
%ADD328R,0.0215X0.0001*%
%ADD329R,0.0227X0.0000*%
%ADD330R,0.0215X0.0001*%
%ADD331R,0.0215X0.0000*%
%ADD332R,0.0214X0.0000*%
%ADD333R,0.0226X0.0001*%
%ADD334R,0.0214X0.0001*%
%ADD335R,0.0226X0.0000*%
%ADD336R,0.0214X0.0001*%
%ADD337R,0.0214X0.0000*%
%ADD338R,0.0213X0.0000*%
%ADD339R,0.0213X0.0001*%
%ADD340R,0.0225X0.0001*%
%ADD341R,0.0225X0.0000*%
%ADD342R,0.0213X0.0000*%
%ADD343R,0.0213X0.0001*%
%ADD344R,0.0213X0.0000*%
%ADD345R,0.0224X0.0000*%
%ADD346R,0.0224X0.0001*%
%ADD347R,0.0213X0.0001*%
%ADD348R,0.0212X0.0001*%
%ADD349R,0.0212X0.0000*%
%ADD350R,0.0211X0.0000*%
%ADD351R,0.0211X0.0001*%
%ADD352R,0.0222X0.0000*%
%ADD353R,0.0222X0.0001*%
%ADD354R,0.0211X0.0001*%
%ADD355R,0.0211X0.0000*%
%ADD356R,0.0210X0.0000*%
%ADD357R,0.0210X0.0001*%
%ADD358R,0.0221X0.0000*%
%ADD359R,0.0221X0.0001*%
%ADD360R,0.0210X0.0000*%
%ADD361R,0.0210X0.0001*%
%ADD362R,0.0209X0.0000*%
%ADD363R,0.0209X0.0001*%
%ADD364R,0.0220X0.0000*%
%ADD365R,0.0220X0.0001*%
%ADD366R,0.0209X0.0001*%
%ADD367R,0.0209X0.0000*%
%ADD368R,0.0208X0.0000*%
%ADD369R,0.0208X0.0001*%
%ADD370R,0.0219X0.0000*%
%ADD371R,0.0219X0.0001*%
%ADD372R,0.0208X0.0001*%
%ADD373R,0.0208X0.0000*%
%ADD374R,0.0208X0.0000*%
%ADD375R,0.0208X0.0001*%
%ADD376R,0.0217X0.0000*%
%ADD377R,0.0207X0.0000*%
%ADD378R,0.0217X0.0001*%
%ADD379R,0.0207X0.0001*%
%ADD380R,0.0206X0.0000*%
%ADD381R,0.0216X0.0001*%
%ADD382R,0.0206X0.0001*%
%ADD383R,0.0216X0.0000*%
%ADD384R,0.0206X0.0001*%
%ADD385R,0.0206X0.0000*%
%ADD386R,0.0205X0.0000*%
%ADD387R,0.0205X0.0001*%
%ADD388R,0.0215X0.0001*%
%ADD389R,0.0205X0.0001*%
%ADD390R,0.0215X0.0000*%
%ADD391R,0.0205X0.0000*%
%ADD392R,0.0204X0.0000*%
%ADD393R,0.0204X0.0001*%
%ADD394R,0.0214X0.0001*%
%ADD395R,0.0214X0.0000*%
%ADD396R,0.0204X0.0000*%
%ADD397R,0.0204X0.0001*%
%ADD398R,0.0203X0.0000*%
%ADD399R,0.0203X0.0001*%
%ADD400R,0.0212X0.0001*%
%ADD401R,0.0203X0.0001*%
%ADD402R,0.0212X0.0000*%
%ADD403R,0.0203X0.0000*%
%ADD404R,0.0203X0.0000*%
%ADD405R,0.0203X0.0001*%
%ADD406R,0.0211X0.0000*%
%ADD407R,0.0211X0.0001*%
%ADD408R,0.0202X0.0001*%
%ADD409R,0.0202X0.0000*%
%ADD410R,0.0201X0.0000*%
%ADD411R,0.0201X0.0001*%
%ADD412R,0.0210X0.0000*%
%ADD413R,0.0201X0.0000*%
%ADD414R,0.0210X0.0001*%
%ADD415R,0.0201X0.0001*%
%ADD416R,0.0200X0.0000*%
%ADD417R,0.0200X0.0001*%
%ADD418R,0.0209X0.0000*%
%ADD419R,0.0209X0.0001*%
%ADD420R,0.0200X0.0001*%
%ADD421R,0.0200X0.0000*%
%ADD422R,0.0199X0.0000*%
%ADD423R,0.0199X0.0001*%
%ADD424R,0.0199X0.0001*%
%ADD425R,0.0207X0.0000*%
%ADD426R,0.0199X0.0000*%
%ADD427R,0.0207X0.0001*%
%ADD428R,0.0198X0.0000*%
%ADD429R,0.0198X0.0001*%
%ADD430R,0.0206X0.0000*%
%ADD431R,0.0198X0.0000*%
%ADD432R,0.0206X0.0001*%
%ADD433R,0.0198X0.0001*%
%ADD434R,0.0198X0.0000*%
%ADD435R,0.0198X0.0001*%
%ADD436R,0.0197X0.0001*%
%ADD437R,0.0205X0.0000*%
%ADD438R,0.0197X0.0000*%
%ADD439R,0.0205X0.0001*%
%ADD440R,0.0196X0.0000*%
%ADD441R,0.0196X0.0001*%
%ADD442R,0.0204X0.0001*%
%ADD443R,0.0196X0.0001*%
%ADD444R,0.0204X0.0000*%
%ADD445R,0.0196X0.0000*%
%ADD446R,0.0195X0.0000*%
%ADD447R,0.0195X0.0001*%
%ADD448R,0.0195X0.0000*%
%ADD449R,0.0202X0.0001*%
%ADD450R,0.0195X0.0001*%
%ADD451R,0.0202X0.0000*%
%ADD452R,0.0194X0.0000*%
%ADD453R,0.0194X0.0001*%
%ADD454R,0.0201X0.0001*%
%ADD455R,0.0194X0.0001*%
%ADD456R,0.0201X0.0000*%
%ADD457R,0.0194X0.0000*%
%ADD458R,0.0193X0.0000*%
%ADD459R,0.0193X0.0001*%
%ADD460R,0.0193X0.0001*%
%ADD461R,0.0193X0.0000*%
%ADD462R,0.0200X0.0001*%
%ADD463R,0.0200X0.0000*%
%ADD464R,0.0193X0.0000*%
%ADD465R,0.0193X0.0001*%
%ADD466R,0.0199X0.0000*%
%ADD467R,0.0192X0.0000*%
%ADD468R,0.0199X0.0001*%
%ADD469R,0.0192X0.0001*%
%ADD470R,0.0191X0.0000*%
%ADD471R,0.0191X0.0001*%
%ADD472R,0.0191X0.0001*%
%ADD473R,0.0191X0.0000*%
%ADD474R,0.0197X0.0000*%
%ADD475R,0.0197X0.0001*%
%ADD476R,0.0190X0.0000*%
%ADD477R,0.0190X0.0001*%
%ADD478R,0.0190X0.0001*%
%ADD479R,0.0196X0.0000*%
%ADD480R,0.0190X0.0000*%
%ADD481R,0.0196X0.0001*%
%ADD482R,0.0189X0.0000*%
%ADD483R,0.0189X0.0001*%
%ADD484R,0.0189X0.0000*%
%ADD485R,0.0189X0.0001*%
%ADD486R,0.0195X0.0000*%
%ADD487R,0.0195X0.0001*%
%ADD488R,0.0188X0.0000*%
%ADD489R,0.0188X0.0001*%
%ADD490R,0.0188X0.0001*%
%ADD491R,0.0194X0.0000*%
%ADD492R,0.0188X0.0000*%
%ADD493R,0.0194X0.0001*%
%ADD494R,0.0187X0.0000*%
%ADD495R,0.0187X0.0001*%
%ADD496R,0.0187X0.0001*%
%ADD497R,0.0187X0.0000*%
%ADD498R,0.0192X0.0000*%
%ADD499R,0.0186X0.0000*%
%ADD500R,0.0192X0.0001*%
%ADD501R,0.0186X0.0001*%
%ADD502R,0.0186X0.0000*%
%ADD503R,0.0191X0.0001*%
%ADD504R,0.0186X0.0001*%
%ADD505R,0.0191X0.0000*%
%ADD506R,0.0185X0.0000*%
%ADD507R,0.0185X0.0001*%
%ADD508R,0.0185X0.0001*%
%ADD509R,0.0185X0.0000*%
%ADD510R,0.0190X0.0001*%
%ADD511R,0.0190X0.0000*%
%ADD512R,0.0184X0.0000*%
%ADD513R,0.0184X0.0001*%
%ADD514R,0.0184X0.0001*%
%ADD515R,0.0184X0.0000*%
%ADD516R,0.0189X0.0001*%
%ADD517R,0.0189X0.0000*%
%ADD518R,0.0183X0.0000*%
%ADD519R,0.0183X0.0001*%
%ADD520R,0.0183X0.0000*%
%ADD521R,0.0183X0.0001*%
%ADD522R,0.0187X0.0001*%
%ADD523R,0.0187X0.0000*%
%ADD524R,0.0182X0.0000*%
%ADD525R,0.0182X0.0001*%
%ADD526R,0.0182X0.0001*%
%ADD527R,0.0182X0.0000*%
%ADD528R,0.0186X0.0000*%
%ADD529R,0.0186X0.0001*%
%ADD530R,0.0181X0.0000*%
%ADD531R,0.0181X0.0001*%
%ADD532R,0.0181X0.0001*%
%ADD533R,0.0181X0.0000*%
%ADD534R,0.0185X0.0000*%
%ADD535R,0.0180X0.0000*%
%ADD536R,0.0185X0.0001*%
%ADD537R,0.0180X0.0001*%
%ADD538R,0.0180X0.0000*%
%ADD539R,0.0180X0.0001*%
%ADD540R,0.0184X0.0000*%
%ADD541R,0.0184X0.0001*%
%ADD542R,0.0179X0.0000*%
%ADD543R,0.0179X0.0001*%
%ADD544R,0.0179X0.0001*%
%ADD545R,0.0179X0.0000*%
%ADD546R,0.0182X0.0000*%
%ADD547R,0.0178X0.0000*%
%ADD548R,0.0182X0.0001*%
%ADD549R,0.0178X0.0001*%
%ADD550R,0.0178X0.0001*%
%ADD551R,0.0178X0.0000*%
%ADD552R,0.0181X0.0000*%
%ADD553R,0.0177X0.0000*%
%ADD554R,0.0181X0.0001*%
%ADD555R,0.0177X0.0001*%
%ADD556R,0.0177X0.0000*%
%ADD557R,0.0177X0.0001*%
%ADD558R,0.0180X0.0000*%
%ADD559R,0.0176X0.0000*%
%ADD560R,0.0180X0.0001*%
%ADD561R,0.0176X0.0001*%
%ADD562R,0.0176X0.0001*%
%ADD563R,0.0176X0.0000*%
%ADD564R,0.0179X0.0001*%
%ADD565R,0.0179X0.0000*%
%ADD566R,0.0175X0.0000*%
%ADD567R,0.0175X0.0001*%
%ADD568R,0.0175X0.0001*%
%ADD569R,0.0175X0.0000*%
%ADD570R,0.0174X0.0000*%
%ADD571R,0.0177X0.0001*%
%ADD572R,0.0174X0.0001*%
%ADD573R,0.0177X0.0000*%
%ADD574R,0.0174X0.0000*%
%ADD575R,0.0174X0.0001*%
%ADD576R,0.0176X0.0001*%
%ADD577R,0.0176X0.0000*%
%ADD578R,0.0173X0.0000*%
%ADD579R,0.0173X0.0001*%
%ADD580R,0.0173X0.0001*%
%ADD581R,0.0173X0.0000*%
%ADD582R,0.0173X0.0000*%
%ADD583R,0.0175X0.0001*%
%ADD584R,0.0173X0.0001*%
%ADD585R,0.0175X0.0000*%
%ADD586R,0.0172X0.0001*%
%ADD587R,0.0172X0.0000*%
%ADD588R,0.0174X0.0000*%
%ADD589R,0.0171X0.0000*%
%ADD590R,0.0174X0.0001*%
%ADD591R,0.0171X0.0001*%
%ADD592R,0.0171X0.0000*%
%ADD593R,0.0171X0.0001*%
%ADD594R,0.0170X0.0000*%
%ADD595R,0.0172X0.0000*%
%ADD596R,0.0172X0.0001*%
%ADD597R,0.0170X0.0001*%
%ADD598R,0.0170X0.0001*%
%ADD599R,0.0170X0.0000*%
%ADD600R,0.0171X0.0000*%
%ADD601R,0.0169X0.0000*%
%ADD602R,0.0171X0.0001*%
%ADD603R,0.0169X0.0001*%
%ADD604R,0.0169X0.0001*%
%ADD605R,0.0169X0.0000*%
%ADD606R,0.0168X0.0000*%
%ADD607R,0.0168X0.0001*%
%ADD608R,0.0170X0.0000*%
%ADD609R,0.0170X0.0001*%
%ADD610R,0.0168X0.0000*%
%ADD611R,0.0168X0.0001*%
%ADD612R,0.0169X0.0000*%
%ADD613R,0.0168X0.0000*%
%ADD614R,0.0169X0.0001*%
%ADD615R,0.0168X0.0001*%
%ADD616R,0.0167X0.0001*%
%ADD617R,0.0167X0.0000*%
%ADD618R,0.0166X0.0000*%
%ADD619R,0.0166X0.0001*%
%ADD620R,0.0167X0.0000*%
%ADD621R,0.0167X0.0001*%
%ADD622R,0.0166X0.0001*%
%ADD623R,0.0166X0.0000*%
%ADD624R,0.0165X0.0000*%
%ADD625R,0.0166X0.0001*%
%ADD626R,0.0165X0.0001*%
%ADD627R,0.0166X0.0000*%
%ADD628R,0.0165X0.0000*%
%ADD629R,0.0165X0.0001*%
%ADD630R,0.0164X0.0000*%
%ADD631R,0.0165X0.0001*%
%ADD632R,0.0164X0.0001*%
%ADD633R,0.0165X0.0000*%
%ADD634R,0.0164X0.0001*%
%ADD635R,0.0164X0.0000*%
%ADD636R,0.0163X0.0000*%
%ADD637R,0.0164X0.0001*%
%ADD638R,0.0163X0.0001*%
%ADD639R,0.0164X0.0000*%
%ADD640R,0.0163X0.0001*%
%ADD641R,0.0163X0.0000*%
%ADD642R,0.0163X0.0000*%
%ADD643R,0.0163X0.0001*%
%ADD644R,0.0162X0.0001*%
%ADD645R,0.0162X0.0000*%
%ADD646R,0.0162X0.0000*%
%ADD647R,0.0161X0.0001*%
%ADD648R,0.0162X0.0001*%
%ADD649R,0.0161X0.0000*%
%ADD650R,0.0161X0.0000*%
%ADD651R,0.0161X0.0001*%
%ADD652R,0.0160X0.0001*%
%ADD653R,0.0161X0.0001*%
%ADD654R,0.0160X0.0000*%
%ADD655R,0.0161X0.0000*%
%ADD656R,0.0160X0.0000*%
%ADD657R,0.0160X0.0001*%
%ADD658R,0.0160X0.0000*%
%ADD659R,0.0160X0.0001*%
%ADD660R,0.0159X0.0001*%
%ADD661R,0.0159X0.0000*%
%ADD662R,0.0159X0.0000*%
%ADD663R,0.0159X0.0001*%
%ADD664R,0.0159X0.0000*%
%ADD665R,0.0159X0.0001*%
%ADD666R,0.0158X0.0000*%
%ADD667R,0.0158X0.0001*%
%ADD668R,0.0158X0.0000*%
%ADD669R,0.0158X0.0000*%
%ADD670R,0.0158X0.0001*%
%ADD671R,0.0158X0.0001*%
%ADD672R,0.0157X0.0000*%
%ADD673R,0.0157X0.0001*%
%ADD674R,0.0156X0.0000*%
%ADD675R,0.0156X0.0001*%
%ADD676R,0.0156X0.0000*%
%ADD677R,0.0156X0.0001*%
%ADD678R,0.0157X0.0001*%
%ADD679R,0.0155X0.0000*%
%ADD680R,0.0157X0.0000*%
%ADD681R,0.0155X0.0001*%
%ADD682R,0.0155X0.0001*%
%ADD683R,0.0155X0.0000*%
%ADD684R,0.0155X0.0000*%
%ADD685R,0.0156X0.0000*%
%ADD686R,0.0155X0.0001*%
%ADD687R,0.0156X0.0001*%
%ADD688R,0.0154X0.0000*%
%ADD689R,0.0154X0.0001*%
%ADD690R,0.0154X0.0001*%
%ADD691R,0.0154X0.0000*%
%ADD692R,0.0153X0.0000*%
%ADD693R,0.0153X0.0001*%
%ADD694R,0.0154X0.0000*%
%ADD695R,0.0153X0.0001*%
%ADD696R,0.0154X0.0001*%
%ADD697R,0.0153X0.0000*%
%ADD698R,0.0152X0.0001*%
%ADD699R,0.0152X0.0000*%
%ADD700R,0.0151X0.0000*%
%ADD701R,0.0153X0.0000*%
%ADD702R,0.0151X0.0001*%
%ADD703R,0.0153X0.0001*%
%ADD704R,0.0151X0.0001*%
%ADD705R,0.0151X0.0000*%
%ADD706R,0.0150X0.0001*%
%ADD707R,0.0150X0.0000*%
%ADD708R,0.0150X0.0000*%
%ADD709R,0.0150X0.0001*%
%ADD710R,0.0150X0.0001*%
%ADD711R,0.0152X0.0001*%
%ADD712R,0.0150X0.0000*%
%ADD713R,0.0152X0.0000*%
%ADD714R,0.0149X0.0000*%
%ADD715R,0.0149X0.0001*%
%ADD716R,0.0149X0.0000*%
%ADD717R,0.0149X0.0001*%
%ADD718R,0.0151X0.0001*%
%ADD719R,0.0151X0.0000*%
%ADD720R,0.0148X0.0001*%
%ADD721R,0.0148X0.0000*%
%ADD722R,0.0260X0.0000*%
%ADD723R,0.0259X0.0000*%
%ADD724R,0.0260X0.0001*%
%ADD725R,0.0259X0.0001*%
%ADD726R,0.0868X0.0000*%
%ADD727R,0.0868X0.0001*%
%ADD728R,0.0321X0.0000*%
%ADD729R,0.0305X0.0000*%
%ADD730R,0.0321X0.0001*%
%ADD731R,0.0305X0.0001*%
%ADD732R,0.0867X0.0000*%
%ADD733R,0.0867X0.0001*%
%ADD734R,0.0867X0.0000*%
%ADD735R,0.0867X0.0001*%
%ADD736R,0.0866X0.0000*%
%ADD737R,0.0866X0.0000*%
%ADD738R,0.0866X0.0001*%
%ADD739R,0.0866X0.0000*%
%ADD740R,0.0866X0.0001*%
%ADD741R,0.0865X0.0000*%
%ADD742R,0.0865X0.0001*%
%ADD743R,0.0864X0.0001*%
%ADD744R,0.0864X0.0000*%
%ADD745R,0.0864X0.0001*%
%ADD746R,0.0864X0.0000*%
%ADD747R,0.0864X0.0001*%
%ADD748R,0.0864X0.0000*%
%ADD749R,0.0863X0.0001*%
%ADD750R,0.0863X0.0000*%
%ADD751R,0.0862X0.0001*%
%ADD752R,0.0862X0.0000*%
%ADD753R,0.0862X0.0001*%
%ADD754R,0.0862X0.0000*%
%ADD755R,0.0861X0.0001*%
%ADD756R,0.0861X0.0000*%
%ADD757R,0.0861X0.0001*%
%ADD758R,0.0860X0.0001*%
%ADD759R,0.0860X0.0000*%
%ADD760R,0.0859X0.0000*%
%ADD761R,0.0859X0.0001*%
%ADD762R,0.0858X0.0000*%
%ADD763R,0.0858X0.0001*%
%ADD764R,0.0857X0.0001*%
%ADD765R,0.0857X0.0000*%
%ADD766R,0.0856X0.0000*%
%ADD767R,0.0856X0.0001*%
%ADD768R,0.0855X0.0000*%
%ADD769R,0.0855X0.0001*%
%ADD770R,0.0855X0.0000*%
%ADD771R,0.0855X0.0001*%
%ADD772R,0.0854X0.0000*%
%ADD773R,0.0854X0.0001*%
%ADD774R,0.0853X0.0000*%
%ADD775R,0.0853X0.0001*%
%ADD776R,0.0853X0.0000*%
%ADD777R,0.0853X0.0000*%
%ADD778R,0.0852X0.0001*%
%ADD779R,0.0852X0.0000*%
%ADD780R,0.0852X0.0001*%
%ADD781R,0.0851X0.0000*%
%ADD782R,0.0850X0.0001*%
%ADD783R,0.0850X0.0000*%
%ADD784R,0.0850X0.0001*%
%ADD785R,0.0849X0.0000*%
%ADD786R,0.0848X0.0001*%
%ADD787R,0.0848X0.0000*%
%ADD788R,0.0848X0.0001*%
%ADD789R,0.0848X0.0000*%
%ADD790R,0.0847X0.0000*%
%ADD791R,0.0847X0.0001*%
%ADD792R,0.0846X0.0000*%
%ADD793R,0.0846X0.0001*%
%ADD794R,0.0845X0.0000*%
%ADD795R,0.0845X0.0000*%
%ADD796R,0.0845X0.0001*%
%ADD797R,0.0843X0.0000*%
%ADD798R,0.0843X0.0001*%
%ADD799R,0.0841X0.0000*%
%ADD800R,0.0840X0.0000*%
%ADD801R,0.0839X0.0001*%
%ADD802R,0.0838X0.0000*%
%ADD803R,0.0837X0.0001*%
%ADD804R,0.0836X0.0000*%
%ADD805R,0.0835X0.0000*%
%ADD806R,0.0834X0.0001*%
%ADD807R,0.0833X0.0000*%
%ADD808R,0.0832X0.0001*%
%ADD809R,0.0831X0.0000*%
%ADD810R,0.0830X0.0000*%
%ADD811R,0.0829X0.0001*%
%ADD812R,0.0828X0.0000*%
%ADD813R,0.0827X0.0001*%
%ADD814R,0.0826X0.0000*%
%ADD815R,0.0825X0.0000*%
%ADD816R,0.0824X0.0001*%
%ADD817R,0.0823X0.0000*%
%ADD818R,0.0822X0.0001*%
%ADD819R,0.0821X0.0000*%
%ADD820R,0.0820X0.0000*%
%ADD821R,0.0819X0.0001*%
%ADD822R,0.0818X0.0000*%
%ADD823R,0.0817X0.0001*%
%ADD824R,0.0816X0.0000*%
%ADD825R,0.0815X0.0000*%
%ADD826R,0.0814X0.0001*%
%ADD827R,0.0813X0.0000*%
%ADD828R,0.0812X0.0001*%
%ADD829R,0.0811X0.0000*%
%ADD830R,0.0810X0.0000*%
%ADD831R,0.0808X0.0001*%
%ADD832R,0.0808X0.0000*%
%ADD833R,0.0807X0.0001*%
%ADD834R,0.0805X0.0000*%
%ADD835R,0.0805X0.0000*%
%ADD836R,0.0803X0.0001*%
%ADD837R,0.0803X0.0000*%
%ADD838R,0.0802X0.0001*%
%ADD839R,0.0800X0.0000*%
%ADD840R,0.0800X0.0000*%
%ADD841R,0.0798X0.0001*%
%ADD842R,0.0798X0.0000*%
%ADD843R,0.0797X0.0001*%
%ADD844R,0.0795X0.0000*%
%ADD845R,0.0795X0.0000*%
%ADD846R,0.0793X0.0001*%
%ADD847R,0.0793X0.0000*%
%ADD848R,0.0791X0.0001*%
%ADD849R,0.0790X0.0000*%
%ADD850R,0.0789X0.0000*%
%ADD851R,0.0788X0.0001*%
%ADD852R,0.0787X0.0000*%
%ADD853R,0.0786X0.0001*%
%ADD854R,0.0785X0.0000*%
%ADD855R,0.0784X0.0000*%
%ADD856R,0.0783X0.0001*%
%ADD857R,0.0782X0.0000*%
%ADD858R,0.0781X0.0001*%
%ADD859R,0.0780X0.0000*%
%ADD860R,0.0779X0.0000*%
%ADD861R,0.0778X0.0001*%
%ADD862R,0.0777X0.0000*%
%ADD863R,0.0776X0.0001*%
%ADD864R,0.0775X0.0000*%
%ADD865R,0.0774X0.0000*%
%ADD866R,0.0773X0.0001*%
%ADD867R,0.0772X0.0000*%
%ADD868R,0.0771X0.0001*%
%ADD869R,0.0770X0.0000*%
%ADD870R,0.0769X0.0000*%
%ADD871R,0.0768X0.0001*%
%ADD872R,0.0767X0.0000*%
%ADD873R,0.0766X0.0001*%
%ADD874R,0.0765X0.0000*%
%ADD875R,0.0764X0.0000*%
%ADD876R,0.0763X0.0001*%
%ADD877R,0.0762X0.0000*%
%ADD878R,0.0761X0.0001*%
%ADD879R,0.0760X0.0000*%
%ADD880R,0.0758X0.0000*%
%ADD881R,0.0757X0.0001*%
%ADD882R,0.0757X0.0000*%
%ADD883R,0.0755X0.0001*%
%ADD884R,0.0755X0.0000*%
%ADD885R,0.0753X0.0000*%
%ADD886R,0.0752X0.0001*%
%ADD887R,0.0752X0.0000*%
%ADD888R,0.0750X0.0001*%
%ADD889R,0.0750X0.0000*%
%ADD890R,0.0748X0.0000*%
%ADD891R,0.0747X0.0001*%
%ADD892R,0.0747X0.0000*%
%ADD893R,0.0745X0.0001*%
%ADD894R,0.0745X0.0000*%
%ADD895R,0.0743X0.0000*%
%ADD896R,0.0742X0.0001*%
%ADD897R,0.0741X0.0000*%
%ADD898R,0.0740X0.0001*%
%ADD899R,0.0739X0.0000*%
%ADD900R,0.0738X0.0000*%
%ADD901R,0.0737X0.0001*%
%ADD902R,0.0736X0.0000*%
%ADD903R,0.0735X0.0001*%
%ADD904R,0.0734X0.0000*%
%ADD905R,0.0733X0.0000*%
%ADD906R,0.0732X0.0001*%
%ADD907R,0.0731X0.0000*%
%ADD908R,0.0730X0.0001*%
%ADD909R,0.0729X0.0000*%
%ADD910R,0.0728X0.0000*%
%ADD911R,0.0727X0.0001*%
%ADD912R,0.0726X0.0000*%
%ADD913R,0.0725X0.0001*%
%ADD914R,0.0724X0.0000*%
%ADD915R,0.0723X0.0000*%
%ADD916R,0.0722X0.0001*%
%ADD917R,0.0721X0.0000*%
%ADD918R,0.0720X0.0001*%
%ADD919R,0.0719X0.0000*%
%ADD920R,0.0718X0.0000*%
%ADD921R,0.0717X0.0001*%
%ADD922R,0.0716X0.0000*%
%ADD923R,0.0715X0.0001*%
%ADD924R,0.0714X0.0000*%
%ADD925R,0.0713X0.0000*%
%ADD926R,0.0712X0.0001*%
%ADD927R,0.0711X0.0000*%
%ADD928R,0.0710X0.0001*%
%ADD929R,0.0709X0.0000*%
%ADD930R,0.0707X0.0000*%
%ADD931R,0.0707X0.0001*%
%ADD932R,0.0705X0.0000*%
%ADD933R,0.0705X0.0001*%
%ADD934R,0.0703X0.0000*%
%ADD935R,0.0703X0.0000*%
%ADD936R,0.0702X0.0001*%
%ADD937R,0.0700X0.0000*%
%ADD938R,0.0700X0.0001*%
%ADD939R,0.0698X0.0000*%
%ADD940R,0.0698X0.0000*%
%ADD941R,0.0697X0.0001*%
%ADD942R,0.0695X0.0000*%
%ADD943R,0.0695X0.0001*%
%ADD944R,0.0693X0.0000*%
%ADD945R,0.0692X0.0000*%
%ADD946R,0.0691X0.0001*%
%ADD947R,0.0690X0.0000*%
%ADD948R,0.0689X0.0001*%
%ADD949R,0.0688X0.0000*%
%ADD950R,0.0687X0.0000*%
%ADD951R,0.0686X0.0001*%
%ADD952R,0.0685X0.0000*%
%ADD953R,0.0684X0.0001*%
%ADD954R,0.0683X0.0000*%
%ADD955R,0.0682X0.0000*%
%ADD956R,0.0681X0.0001*%
%ADD957R,0.0680X0.0000*%
%ADD958R,0.0679X0.0001*%
%ADD959R,0.0678X0.0000*%
%ADD960R,0.0677X0.0000*%
%ADD961R,0.0676X0.0001*%
%ADD962R,0.0675X0.0000*%
%ADD963R,0.0674X0.0001*%
%ADD964R,0.0673X0.0000*%
%ADD965R,0.0672X0.0000*%
%ADD966R,0.0671X0.0001*%
%ADD967R,0.0670X0.0000*%
%ADD968R,0.0669X0.0001*%
%ADD969R,0.0668X0.0000*%
%ADD970R,0.0667X0.0000*%
%ADD971R,0.0666X0.0001*%
%ADD972R,0.0665X0.0000*%
%ADD973R,0.0664X0.0001*%
%ADD974R,0.0663X0.0000*%
%ADD975R,0.0662X0.0000*%
%ADD976R,0.0661X0.0001*%
%ADD977R,0.0660X0.0000*%
%ADD978R,0.0659X0.0001*%
%ADD979R,0.0658X0.0000*%
%ADD980R,0.0657X0.0000*%
%ADD981R,0.0655X0.0001*%
%ADD982R,0.0655X0.0000*%
%ADD983R,0.0653X0.0001*%
%ADD984R,0.0653X0.0000*%
%ADD985R,0.0652X0.0000*%
%ADD986R,0.0650X0.0001*%
%ADD987R,0.0650X0.0000*%
%ADD988R,0.0648X0.0001*%
%ADD989R,0.0648X0.0000*%
%ADD990R,0.0647X0.0000*%
%ADD991R,0.0645X0.0001*%
%ADD992R,0.0645X0.0000*%
%ADD993R,0.0643X0.0001*%
%ADD994R,0.0642X0.0000*%
%ADD995R,0.0641X0.0000*%
%ADD996R,0.0640X0.0001*%
%ADD997R,0.0639X0.0000*%
%ADD998R,0.0638X0.0001*%
%ADD999R,0.0637X0.0000*%
%ADD1000R,0.0636X0.0000*%
%ADD1001R,0.0635X0.0001*%
%ADD1002R,0.0634X0.0000*%
%ADD1003R,0.0633X0.0001*%
%ADD1004R,0.0632X0.0000*%
%ADD1005R,0.0631X0.0000*%
%ADD1006R,0.0630X0.0001*%
%ADD1007R,0.0629X0.0000*%
%ADD1008R,0.0628X0.0001*%
%ADD1009R,0.0627X0.0000*%
%ADD1010R,0.0626X0.0000*%
%ADD1011R,0.0625X0.0001*%
%ADD1012R,0.0624X0.0000*%
%ADD1013R,0.0623X0.0001*%
%ADD1014R,0.0622X0.0000*%
%ADD1015R,0.0621X0.0000*%
%ADD1016R,0.0620X0.0001*%
%ADD1017R,0.0619X0.0000*%
%ADD1018R,0.0618X0.0001*%
%ADD1019R,0.0617X0.0000*%
%ADD1020R,0.0616X0.0000*%
%ADD1021R,0.0615X0.0001*%
%ADD1022R,0.0614X0.0000*%
%ADD1023R,0.0613X0.0001*%
%ADD1024R,0.0612X0.0000*%
%ADD1025R,0.0611X0.0000*%
%ADD1026R,0.0610X0.0001*%
%ADD1027R,0.0609X0.0000*%
%ADD1028R,0.0607X0.0001*%
%ADD1029R,0.0607X0.0000*%
%ADD1030R,0.0605X0.0000*%
%ADD1031R,0.0605X0.0001*%
%ADD1032R,0.0603X0.0000*%
%ADD1033R,0.0602X0.0001*%
%ADD1034R,0.0602X0.0000*%
%ADD1035R,0.0600X0.0000*%
%ADD1036R,0.0600X0.0001*%
%ADD1037R,0.0598X0.0000*%
%ADD1038R,0.0597X0.0001*%
%ADD1039R,0.0597X0.0000*%
%ADD1040R,0.0595X0.0000*%
%ADD1041R,0.0595X0.0001*%
%ADD1042R,0.0593X0.0000*%
%ADD1043R,0.0592X0.0001*%
%ADD1044R,0.0591X0.0000*%
%ADD1045R,0.0590X0.0000*%
%ADD1046R,0.0589X0.0001*%
%ADD1047R,0.0588X0.0000*%
%ADD1048R,0.0587X0.0001*%
%ADD1049R,0.0586X0.0000*%
%ADD1050R,0.0585X0.0000*%
%ADD1051R,0.0584X0.0001*%
%ADD1052R,0.0583X0.0000*%
%ADD1053R,0.0582X0.0001*%
%ADD1054R,0.0581X0.0000*%
%ADD1055R,0.0580X0.0000*%
%ADD1056R,0.0579X0.0001*%
%ADD1057R,0.0578X0.0000*%
%ADD1058R,0.0577X0.0001*%
%ADD1059R,0.0576X0.0000*%
%ADD1060R,0.0575X0.0000*%
%ADD1061R,0.0574X0.0001*%
%ADD1062R,0.0573X0.0000*%
%ADD1063R,0.0571X0.0001*%
%ADD1064R,0.0568X0.0000*%
%ADD1065R,0.0565X0.0000*%
%ADD1066R,0.0563X0.0001*%
%ADD1067R,0.0560X0.0000*%
%ADD1068R,0.0557X0.0001*%
%ADD1069R,0.0554X0.0000*%
%ADD1070R,0.0551X0.0000*%
%ADD1071R,0.0548X0.0001*%
%ADD1072R,0.0545X0.0000*%
%ADD1073R,0.0542X0.0001*%
%ADD1074R,0.0537X0.0000*%
%ADD1075R,0.0533X0.0000*%
%ADD1076R,0.0530X0.0001*%
%ADD1077R,0.0526X0.0000*%
%ADD1078R,0.0522X0.0001*%
%ADD1079R,0.0518X0.0000*%
%ADD1080R,0.0513X0.0000*%
%ADD1081R,0.0508X0.0001*%
%ADD1082R,0.0503X0.0000*%
%ADD1083R,0.0496X0.0001*%
%ADD1084R,0.0489X0.0000*%
%ADD1085R,0.0477X0.0000*%
%ADD1086C,0.0000*%
D10*
X004434Y007177D02*
X004494Y007177D01*
X004554Y007237D01*
X004554Y007538D01*
X004314Y007538D02*
X004314Y007358D01*
X004374Y007298D01*
X004554Y007298D01*
X004186Y007298D02*
X004186Y007478D01*
X004126Y007538D01*
X003945Y007538D01*
X003945Y007298D01*
X003820Y007298D02*
X003700Y007298D01*
X003760Y007298D02*
X003760Y007538D01*
X003700Y007538D01*
X003760Y007658D02*
X003760Y007718D01*
X003572Y007658D02*
X003332Y007658D01*
X003452Y007658D02*
X003452Y007298D01*
X003204Y007658D02*
X002963Y007658D01*
X003083Y007658D02*
X003083Y007298D01*
X002835Y007298D02*
X002835Y007538D01*
X002715Y007658D01*
X002595Y007538D01*
X002595Y007298D01*
X002595Y007478D02*
X002835Y007478D01*
X005050Y007538D02*
X005110Y007478D01*
X005231Y007478D01*
X005291Y007418D01*
X005291Y007358D01*
X005231Y007298D01*
X005110Y007298D01*
X005050Y007358D01*
X005050Y007538D02*
X005050Y007598D01*
X005110Y007658D01*
X005231Y007658D01*
X005291Y007598D01*
X005419Y007658D02*
X005599Y007658D01*
X005659Y007598D01*
X005659Y007478D01*
X005599Y007418D01*
X005419Y007418D01*
X005419Y007298D02*
X005419Y007658D01*
X005787Y007658D02*
X005907Y007658D01*
X005847Y007658D02*
X005847Y007298D01*
X005787Y007298D02*
X005907Y007298D01*
D11*
X002660Y008093D02*
X002660Y008273D01*
X002660Y008183D02*
X002390Y008183D01*
X002480Y008093D01*
X002435Y008369D02*
X002390Y008414D01*
X002390Y008504D01*
X002435Y008549D01*
X002615Y008369D01*
X002660Y008414D01*
X002660Y008504D01*
X002615Y008549D01*
X002435Y008549D01*
X002390Y008645D02*
X002660Y008645D01*
X002570Y008645D02*
X002390Y008825D01*
X002525Y008690D02*
X002660Y008825D01*
X002615Y008369D02*
X002435Y008369D01*
D12*
X002475Y002728D02*
X000975Y002728D01*
X002886Y001850D02*
X002886Y001720D01*
X002886Y001850D02*
X005564Y001850D01*
X005564Y001720D01*
X005564Y000657D02*
X002886Y000657D01*
X004525Y002878D02*
X004525Y002978D01*
X004525Y002878D02*
X005225Y002878D01*
X005227Y002922D01*
X005233Y002965D01*
X005242Y003007D01*
X005255Y003049D01*
X005272Y003089D01*
X005292Y003128D01*
X005315Y003165D01*
X005342Y003199D01*
X005371Y003232D01*
X005404Y003261D01*
X005438Y003288D01*
X005475Y003311D01*
X005514Y003331D01*
X005554Y003348D01*
X005596Y003361D01*
X005638Y003370D01*
X005681Y003376D01*
X005725Y003378D01*
X005769Y003376D01*
X005812Y003370D01*
X005854Y003361D01*
X005896Y003348D01*
X005936Y003331D01*
X005975Y003311D01*
X006012Y003288D01*
X006046Y003261D01*
X006079Y003232D01*
X006108Y003199D01*
X006135Y003165D01*
X006158Y003128D01*
X006178Y003089D01*
X006195Y003049D01*
X006208Y003007D01*
X006217Y002965D01*
X006223Y002922D01*
X006225Y002878D01*
X006925Y002878D01*
X006925Y002978D01*
X006925Y006778D02*
X006925Y006878D01*
X004525Y006878D01*
X004525Y006778D01*
X004825Y007928D02*
X004825Y008928D01*
X002825Y008928D01*
X002825Y007928D01*
X004825Y007928D01*
X003225Y006878D02*
X003225Y006378D01*
X002975Y006128D01*
X003225Y005878D01*
X003225Y005378D01*
X002975Y005128D01*
X002475Y005128D01*
X002225Y005378D01*
X001975Y005128D01*
X001475Y005128D01*
X001225Y005378D01*
X000975Y005128D01*
X000475Y005128D01*
X000225Y005378D01*
X000225Y005878D01*
X000475Y006128D01*
X000225Y006378D01*
X000225Y006878D01*
X000475Y007128D01*
X000975Y007128D01*
X001225Y006878D01*
X001475Y007128D01*
X001975Y007128D01*
X002225Y006878D01*
X002475Y007128D01*
X002975Y007128D01*
X003225Y006878D01*
X002225Y006628D02*
X002225Y005628D01*
X001225Y005628D02*
X001225Y006628D01*
X000975Y004928D02*
X000475Y004928D01*
D13*
X007875Y003378D03*
D14*
X002505Y002696D02*
X002451Y002768D01*
X002452Y002767D02*
X002505Y002810D01*
X002556Y002855D01*
X002604Y002904D01*
X002649Y002955D01*
X002692Y003009D01*
X002731Y003065D01*
X002767Y003123D01*
X002800Y003183D01*
X002829Y003244D01*
X002854Y003308D01*
X002876Y003372D01*
X002895Y003438D01*
X002909Y003505D01*
X002920Y003572D01*
X002927Y003640D01*
X002930Y003708D01*
X002929Y003777D01*
X002924Y003845D01*
X002916Y003913D01*
X002903Y003980D01*
X002887Y004046D01*
X002867Y004111D01*
X002844Y004176D01*
X002817Y004238D01*
X002786Y004299D01*
X002752Y004358D01*
X002715Y004416D01*
X002674Y004471D01*
X002630Y004523D01*
X002584Y004573D01*
X002535Y004620D01*
X002483Y004665D01*
X002429Y004706D01*
X002372Y004745D01*
X002313Y004780D01*
X002253Y004811D01*
X002191Y004839D01*
X002127Y004864D01*
X002062Y004885D01*
X001996Y004902D01*
X001929Y004916D01*
X001861Y004925D01*
X001793Y004931D01*
X001725Y004933D01*
X001657Y004931D01*
X001589Y004925D01*
X001521Y004916D01*
X001454Y004902D01*
X001388Y004885D01*
X001323Y004864D01*
X001259Y004839D01*
X001197Y004811D01*
X001137Y004780D01*
X001078Y004745D01*
X001021Y004706D01*
X000967Y004665D01*
X000915Y004620D01*
X000866Y004573D01*
X000820Y004523D01*
X000776Y004471D01*
X000735Y004416D01*
X000698Y004358D01*
X000664Y004299D01*
X000633Y004238D01*
X000606Y004176D01*
X000583Y004111D01*
X000563Y004046D01*
X000547Y003980D01*
X000534Y003913D01*
X000526Y003845D01*
X000521Y003777D01*
X000520Y003708D01*
X000523Y003640D01*
X000530Y003572D01*
X000541Y003505D01*
X000555Y003438D01*
X000574Y003372D01*
X000596Y003308D01*
X000621Y003244D01*
X000650Y003183D01*
X000683Y003123D01*
X000719Y003065D01*
X000758Y003009D01*
X000801Y002955D01*
X000846Y002904D01*
X000894Y002855D01*
X000945Y002810D01*
X000998Y002767D01*
X000945Y002696D01*
X000944Y002695D01*
X000889Y002739D01*
X000836Y002787D01*
X000785Y002837D01*
X000738Y002890D01*
X000694Y002945D01*
X000652Y003003D01*
X000614Y003063D01*
X000579Y003124D01*
X000548Y003188D01*
X000520Y003253D01*
X000496Y003320D01*
X000475Y003388D01*
X000459Y003457D01*
X000446Y003527D01*
X000437Y003597D01*
X000431Y003668D01*
X000430Y003739D01*
X000433Y003810D01*
X000439Y003881D01*
X000449Y003951D01*
X000463Y004020D01*
X000481Y004089D01*
X000503Y004157D01*
X000528Y004223D01*
X000557Y004288D01*
X000590Y004351D01*
X000626Y004412D01*
X000665Y004471D01*
X000707Y004528D01*
X000752Y004583D01*
X000801Y004635D01*
X000852Y004684D01*
X000905Y004731D01*
X000962Y004774D01*
X001020Y004814D01*
X001081Y004851D01*
X001143Y004885D01*
X001207Y004915D01*
X001273Y004942D01*
X001340Y004965D01*
X001409Y004984D01*
X001478Y004999D01*
X001548Y005011D01*
X001619Y005019D01*
X001690Y005023D01*
X001760Y005023D01*
X001831Y005019D01*
X001902Y005011D01*
X001972Y004999D01*
X002041Y004984D01*
X002110Y004965D01*
X002177Y004942D01*
X002243Y004915D01*
X002307Y004885D01*
X002369Y004851D01*
X002430Y004814D01*
X002488Y004774D01*
X002545Y004731D01*
X002598Y004684D01*
X002649Y004635D01*
X002698Y004583D01*
X002743Y004528D01*
X002785Y004471D01*
X002824Y004412D01*
X002860Y004351D01*
X002893Y004288D01*
X002922Y004223D01*
X002947Y004157D01*
X002969Y004089D01*
X002987Y004020D01*
X003001Y003951D01*
X003011Y003881D01*
X003017Y003810D01*
X003020Y003739D01*
X003019Y003668D01*
X003013Y003597D01*
X003004Y003527D01*
X002991Y003457D01*
X002975Y003388D01*
X002954Y003320D01*
X002930Y003253D01*
X002902Y003188D01*
X002871Y003124D01*
X002836Y003063D01*
X002798Y003003D01*
X002756Y002945D01*
X002712Y002890D01*
X002665Y002837D01*
X002614Y002787D01*
X002561Y002739D01*
X002506Y002695D01*
X002501Y002702D01*
X002556Y002747D01*
X002609Y002794D01*
X002660Y002845D01*
X002707Y002898D01*
X002752Y002954D01*
X002793Y003012D01*
X002831Y003072D01*
X002866Y003134D01*
X002897Y003198D01*
X002924Y003264D01*
X002948Y003331D01*
X002968Y003400D01*
X002985Y003469D01*
X002997Y003539D01*
X003006Y003610D01*
X003010Y003681D01*
X003011Y003752D01*
X003007Y003823D01*
X003000Y003894D01*
X002989Y003965D01*
X002974Y004034D01*
X002955Y004103D01*
X002932Y004171D01*
X002906Y004237D01*
X002876Y004302D01*
X002842Y004364D01*
X002806Y004425D01*
X002765Y004484D01*
X002722Y004541D01*
X002675Y004595D01*
X002626Y004646D01*
X002573Y004694D01*
X002519Y004740D01*
X002461Y004782D01*
X002402Y004821D01*
X002340Y004857D01*
X002277Y004890D01*
X002212Y004918D01*
X002145Y004944D01*
X002077Y004965D01*
X002008Y004983D01*
X001938Y004996D01*
X001867Y005006D01*
X001796Y005012D01*
X001725Y005014D01*
X001654Y005012D01*
X001583Y005006D01*
X001512Y004996D01*
X001442Y004983D01*
X001373Y004965D01*
X001305Y004944D01*
X001238Y004918D01*
X001173Y004890D01*
X001110Y004857D01*
X001048Y004821D01*
X000989Y004782D01*
X000931Y004740D01*
X000877Y004694D01*
X000824Y004646D01*
X000775Y004595D01*
X000728Y004541D01*
X000685Y004484D01*
X000644Y004425D01*
X000608Y004364D01*
X000574Y004302D01*
X000544Y004237D01*
X000518Y004171D01*
X000495Y004103D01*
X000476Y004034D01*
X000461Y003965D01*
X000450Y003894D01*
X000443Y003823D01*
X000439Y003752D01*
X000440Y003681D01*
X000444Y003610D01*
X000453Y003539D01*
X000465Y003469D01*
X000482Y003400D01*
X000502Y003331D01*
X000526Y003264D01*
X000553Y003198D01*
X000584Y003134D01*
X000619Y003072D01*
X000657Y003012D01*
X000698Y002954D01*
X000743Y002898D01*
X000790Y002845D01*
X000841Y002794D01*
X000894Y002747D01*
X000949Y002702D01*
X000955Y002709D01*
X000900Y002754D01*
X000847Y002801D01*
X000797Y002851D01*
X000750Y002904D01*
X000706Y002959D01*
X000664Y003017D01*
X000627Y003076D01*
X000592Y003138D01*
X000561Y003202D01*
X000534Y003267D01*
X000510Y003334D01*
X000490Y003402D01*
X000474Y003471D01*
X000462Y003540D01*
X000453Y003611D01*
X000449Y003681D01*
X000448Y003752D01*
X000452Y003823D01*
X000459Y003893D01*
X000470Y003963D01*
X000485Y004032D01*
X000504Y004100D01*
X000526Y004168D01*
X000552Y004233D01*
X000582Y004298D01*
X000615Y004360D01*
X000652Y004420D01*
X000692Y004479D01*
X000735Y004535D01*
X000781Y004589D01*
X000831Y004639D01*
X000882Y004688D01*
X000937Y004733D01*
X000994Y004775D01*
X001053Y004814D01*
X001114Y004849D01*
X001177Y004882D01*
X001242Y004910D01*
X001308Y004935D01*
X001376Y004956D01*
X001444Y004974D01*
X001514Y004987D01*
X001584Y004997D01*
X001654Y005003D01*
X001725Y005005D01*
X001796Y005003D01*
X001866Y004997D01*
X001936Y004987D01*
X002006Y004974D01*
X002074Y004956D01*
X002142Y004935D01*
X002208Y004910D01*
X002273Y004882D01*
X002336Y004849D01*
X002397Y004814D01*
X002456Y004775D01*
X002513Y004733D01*
X002568Y004688D01*
X002619Y004639D01*
X002669Y004589D01*
X002715Y004535D01*
X002758Y004479D01*
X002798Y004420D01*
X002835Y004360D01*
X002868Y004298D01*
X002898Y004233D01*
X002924Y004168D01*
X002946Y004100D01*
X002965Y004032D01*
X002980Y003963D01*
X002991Y003893D01*
X002998Y003823D01*
X003002Y003752D01*
X003001Y003681D01*
X002997Y003611D01*
X002988Y003540D01*
X002976Y003471D01*
X002960Y003402D01*
X002940Y003334D01*
X002916Y003267D01*
X002889Y003202D01*
X002858Y003138D01*
X002823Y003076D01*
X002786Y003017D01*
X002744Y002959D01*
X002700Y002904D01*
X002653Y002851D01*
X002603Y002801D01*
X002550Y002754D01*
X002495Y002709D01*
X002490Y002717D01*
X002545Y002761D01*
X002598Y002809D01*
X002648Y002859D01*
X002696Y002912D01*
X002740Y002968D01*
X002781Y003026D01*
X002818Y003086D01*
X002853Y003148D01*
X002883Y003212D01*
X002910Y003278D01*
X002934Y003345D01*
X002953Y003413D01*
X002969Y003483D01*
X002981Y003553D01*
X002989Y003623D01*
X002993Y003694D01*
X002992Y003765D01*
X002988Y003836D01*
X002980Y003907D01*
X002968Y003977D01*
X002952Y004046D01*
X002933Y004114D01*
X002909Y004182D01*
X002882Y004247D01*
X002851Y004311D01*
X002817Y004373D01*
X002779Y004433D01*
X002737Y004491D01*
X002693Y004547D01*
X002646Y004600D01*
X002595Y004650D01*
X002542Y004697D01*
X002487Y004742D01*
X002429Y004783D01*
X002369Y004820D01*
X002306Y004855D01*
X002242Y004886D01*
X002177Y004913D01*
X002110Y004936D01*
X002041Y004956D01*
X001972Y004972D01*
X001902Y004984D01*
X001831Y004992D01*
X001761Y004996D01*
X001689Y004996D01*
X001619Y004992D01*
X001548Y004984D01*
X001478Y004972D01*
X001409Y004956D01*
X001340Y004936D01*
X001273Y004913D01*
X001208Y004886D01*
X001144Y004855D01*
X001081Y004820D01*
X001021Y004783D01*
X000963Y004742D01*
X000908Y004697D01*
X000855Y004650D01*
X000804Y004600D01*
X000757Y004547D01*
X000713Y004491D01*
X000671Y004433D01*
X000633Y004373D01*
X000599Y004311D01*
X000568Y004247D01*
X000541Y004182D01*
X000517Y004114D01*
X000498Y004046D01*
X000482Y003977D01*
X000470Y003907D01*
X000462Y003836D01*
X000458Y003765D01*
X000457Y003694D01*
X000461Y003623D01*
X000469Y003553D01*
X000481Y003483D01*
X000497Y003413D01*
X000516Y003345D01*
X000540Y003278D01*
X000567Y003212D01*
X000597Y003148D01*
X000632Y003086D01*
X000669Y003026D01*
X000710Y002968D01*
X000754Y002912D01*
X000802Y002859D01*
X000852Y002809D01*
X000905Y002761D01*
X000960Y002717D01*
X000966Y002724D01*
X000911Y002768D01*
X000858Y002815D01*
X000808Y002865D01*
X000761Y002918D01*
X000717Y002973D01*
X000677Y003031D01*
X000639Y003090D01*
X000605Y003152D01*
X000575Y003216D01*
X000548Y003281D01*
X000525Y003348D01*
X000505Y003416D01*
X000490Y003484D01*
X000478Y003554D01*
X000470Y003624D01*
X000466Y003695D01*
X000467Y003765D01*
X000471Y003836D01*
X000479Y003906D01*
X000491Y003975D01*
X000506Y004044D01*
X000526Y004112D01*
X000549Y004178D01*
X000576Y004243D01*
X000607Y004307D01*
X000641Y004369D01*
X000679Y004428D01*
X000720Y004486D01*
X000764Y004541D01*
X000811Y004594D01*
X000861Y004643D01*
X000913Y004690D01*
X000969Y004734D01*
X001026Y004775D01*
X001086Y004813D01*
X001148Y004847D01*
X001211Y004877D01*
X001276Y004904D01*
X001343Y004928D01*
X001411Y004947D01*
X001480Y004963D01*
X001549Y004975D01*
X001619Y004983D01*
X001690Y004987D01*
X001760Y004987D01*
X001831Y004983D01*
X001901Y004975D01*
X001970Y004963D01*
X002039Y004947D01*
X002107Y004928D01*
X002174Y004904D01*
X002239Y004877D01*
X002302Y004847D01*
X002364Y004813D01*
X002424Y004775D01*
X002481Y004734D01*
X002537Y004690D01*
X002589Y004643D01*
X002639Y004594D01*
X002686Y004541D01*
X002730Y004486D01*
X002771Y004428D01*
X002809Y004369D01*
X002843Y004307D01*
X002874Y004243D01*
X002901Y004178D01*
X002924Y004112D01*
X002944Y004044D01*
X002959Y003975D01*
X002971Y003906D01*
X002979Y003836D01*
X002983Y003765D01*
X002984Y003695D01*
X002980Y003624D01*
X002972Y003554D01*
X002960Y003484D01*
X002945Y003416D01*
X002925Y003348D01*
X002902Y003281D01*
X002875Y003216D01*
X002845Y003152D01*
X002811Y003090D01*
X002773Y003031D01*
X002733Y002973D01*
X002689Y002918D01*
X002642Y002865D01*
X002592Y002815D01*
X002539Y002768D01*
X002484Y002724D01*
X002479Y002731D01*
X002534Y002775D01*
X002586Y002822D01*
X002635Y002871D01*
X002682Y002924D01*
X002725Y002978D01*
X002766Y003036D01*
X002803Y003095D01*
X002837Y003156D01*
X002867Y003220D01*
X002894Y003284D01*
X002917Y003351D01*
X002936Y003418D01*
X002951Y003486D01*
X002963Y003555D01*
X002971Y003625D01*
X002975Y003695D01*
X002974Y003765D01*
X002970Y003835D01*
X002962Y003904D01*
X002951Y003973D01*
X002935Y004042D01*
X002916Y004109D01*
X002892Y004175D01*
X002865Y004240D01*
X002835Y004303D01*
X002801Y004364D01*
X002764Y004423D01*
X002723Y004481D01*
X002679Y004535D01*
X002633Y004587D01*
X002583Y004637D01*
X002531Y004684D01*
X002476Y004727D01*
X002419Y004768D01*
X002360Y004805D01*
X002298Y004839D01*
X002235Y004869D01*
X002170Y004896D01*
X002104Y004919D01*
X002037Y004938D01*
X001969Y004954D01*
X001900Y004966D01*
X001830Y004974D01*
X001760Y004978D01*
X001690Y004978D01*
X001620Y004974D01*
X001550Y004966D01*
X001481Y004954D01*
X001413Y004938D01*
X001346Y004919D01*
X001280Y004896D01*
X001215Y004869D01*
X001152Y004839D01*
X001090Y004805D01*
X001031Y004768D01*
X000974Y004727D01*
X000919Y004684D01*
X000867Y004637D01*
X000817Y004587D01*
X000771Y004535D01*
X000727Y004481D01*
X000686Y004423D01*
X000649Y004364D01*
X000615Y004303D01*
X000585Y004240D01*
X000558Y004175D01*
X000534Y004109D01*
X000515Y004042D01*
X000499Y003973D01*
X000488Y003904D01*
X000480Y003835D01*
X000476Y003765D01*
X000475Y003695D01*
X000479Y003625D01*
X000487Y003555D01*
X000499Y003486D01*
X000514Y003418D01*
X000533Y003351D01*
X000556Y003284D01*
X000583Y003220D01*
X000613Y003156D01*
X000647Y003095D01*
X000684Y003036D01*
X000725Y002978D01*
X000768Y002924D01*
X000815Y002871D01*
X000864Y002822D01*
X000916Y002775D01*
X000971Y002731D01*
X000976Y002738D01*
X000922Y002782D01*
X000870Y002828D01*
X000821Y002877D01*
X000775Y002929D01*
X000732Y002984D01*
X000692Y003041D01*
X000655Y003100D01*
X000621Y003161D01*
X000591Y003223D01*
X000565Y003288D01*
X000542Y003353D01*
X000523Y003420D01*
X000507Y003488D01*
X000496Y003557D01*
X000488Y003626D01*
X000484Y003695D01*
X000485Y003765D01*
X000489Y003834D01*
X000496Y003903D01*
X000508Y003972D01*
X000524Y004039D01*
X000543Y004106D01*
X000566Y004172D01*
X000593Y004236D01*
X000623Y004299D01*
X000657Y004360D01*
X000694Y004418D01*
X000734Y004475D01*
X000777Y004529D01*
X000824Y004581D01*
X000873Y004630D01*
X000925Y004677D01*
X000979Y004720D01*
X001036Y004760D01*
X001095Y004797D01*
X001156Y004831D01*
X001219Y004861D01*
X001283Y004888D01*
X001348Y004911D01*
X001415Y004930D01*
X001483Y004945D01*
X001552Y004957D01*
X001621Y004965D01*
X001690Y004969D01*
X001760Y004969D01*
X001829Y004965D01*
X001898Y004957D01*
X001967Y004945D01*
X002035Y004930D01*
X002102Y004911D01*
X002167Y004888D01*
X002231Y004861D01*
X002294Y004831D01*
X002355Y004797D01*
X002414Y004760D01*
X002471Y004720D01*
X002525Y004677D01*
X002577Y004630D01*
X002626Y004581D01*
X002673Y004529D01*
X002716Y004475D01*
X002756Y004418D01*
X002793Y004360D01*
X002827Y004299D01*
X002857Y004236D01*
X002884Y004172D01*
X002907Y004106D01*
X002926Y004039D01*
X002942Y003972D01*
X002954Y003903D01*
X002961Y003834D01*
X002965Y003765D01*
X002966Y003695D01*
X002962Y003626D01*
X002954Y003557D01*
X002943Y003488D01*
X002927Y003420D01*
X002908Y003353D01*
X002885Y003288D01*
X002859Y003223D01*
X002829Y003161D01*
X002795Y003100D01*
X002758Y003041D01*
X002718Y002984D01*
X002675Y002929D01*
X002629Y002877D01*
X002580Y002828D01*
X002528Y002782D01*
X002474Y002738D01*
X002468Y002745D01*
X002522Y002789D01*
X002573Y002835D01*
X002622Y002884D01*
X002668Y002935D01*
X002711Y002989D01*
X002751Y003046D01*
X002787Y003104D01*
X002821Y003165D01*
X002851Y003227D01*
X002877Y003291D01*
X002899Y003356D01*
X002918Y003422D01*
X002934Y003490D01*
X002945Y003558D01*
X002953Y003626D01*
X002957Y003695D01*
X002956Y003764D01*
X002952Y003833D01*
X002945Y003902D01*
X002933Y003970D01*
X002918Y004037D01*
X002898Y004104D01*
X002875Y004169D01*
X002849Y004232D01*
X002819Y004295D01*
X002786Y004355D01*
X002749Y004413D01*
X002709Y004470D01*
X002666Y004524D01*
X002620Y004575D01*
X002571Y004624D01*
X002519Y004670D01*
X002465Y004713D01*
X002409Y004753D01*
X002350Y004789D01*
X002290Y004823D01*
X002228Y004853D01*
X002164Y004879D01*
X002099Y004902D01*
X002032Y004921D01*
X001965Y004936D01*
X001897Y004948D01*
X001828Y004956D01*
X001760Y004960D01*
X001690Y004960D01*
X001622Y004956D01*
X001553Y004948D01*
X001485Y004936D01*
X001418Y004921D01*
X001351Y004902D01*
X001286Y004879D01*
X001222Y004853D01*
X001160Y004823D01*
X001100Y004789D01*
X001041Y004753D01*
X000985Y004713D01*
X000931Y004670D01*
X000879Y004624D01*
X000830Y004575D01*
X000784Y004524D01*
X000741Y004470D01*
X000701Y004413D01*
X000664Y004355D01*
X000631Y004295D01*
X000601Y004232D01*
X000575Y004169D01*
X000552Y004104D01*
X000532Y004037D01*
X000517Y003970D01*
X000505Y003902D01*
X000498Y003833D01*
X000494Y003764D01*
X000493Y003695D01*
X000497Y003626D01*
X000505Y003558D01*
X000516Y003490D01*
X000532Y003422D01*
X000551Y003356D01*
X000573Y003291D01*
X000599Y003227D01*
X000629Y003165D01*
X000663Y003104D01*
X000699Y003046D01*
X000739Y002989D01*
X000782Y002935D01*
X000828Y002884D01*
X000877Y002835D01*
X000928Y002789D01*
X000982Y002745D01*
X000987Y002753D01*
X000933Y002796D01*
X000882Y002842D01*
X000833Y002892D01*
X000787Y002943D01*
X000744Y002998D01*
X000704Y003055D01*
X000668Y003113D01*
X000634Y003174D01*
X000605Y003237D01*
X000579Y003301D01*
X000557Y003367D01*
X000538Y003434D01*
X000523Y003501D01*
X000512Y003570D01*
X000505Y003639D01*
X000502Y003708D01*
X000503Y003777D01*
X000508Y003847D01*
X000516Y003915D01*
X000529Y003983D01*
X000545Y004051D01*
X000566Y004117D01*
X000589Y004182D01*
X000617Y004246D01*
X000648Y004308D01*
X000683Y004368D01*
X000721Y004426D01*
X000762Y004482D01*
X000806Y004535D01*
X000853Y004586D01*
X000903Y004634D01*
X000956Y004679D01*
X001011Y004721D01*
X001068Y004760D01*
X001128Y004795D01*
X001189Y004827D01*
X001252Y004856D01*
X001317Y004881D01*
X001383Y004902D01*
X001450Y004920D01*
X001518Y004933D01*
X001587Y004943D01*
X001656Y004949D01*
X001725Y004951D01*
X001794Y004949D01*
X001863Y004943D01*
X001932Y004933D01*
X002000Y004920D01*
X002067Y004902D01*
X002133Y004881D01*
X002198Y004856D01*
X002261Y004827D01*
X002322Y004795D01*
X002382Y004760D01*
X002439Y004721D01*
X002494Y004679D01*
X002547Y004634D01*
X002597Y004586D01*
X002644Y004535D01*
X002688Y004482D01*
X002729Y004426D01*
X002767Y004368D01*
X002802Y004308D01*
X002833Y004246D01*
X002861Y004182D01*
X002884Y004117D01*
X002905Y004051D01*
X002921Y003983D01*
X002934Y003915D01*
X002942Y003847D01*
X002947Y003777D01*
X002948Y003708D01*
X002945Y003639D01*
X002938Y003570D01*
X002927Y003501D01*
X002912Y003434D01*
X002893Y003367D01*
X002871Y003301D01*
X002845Y003237D01*
X002816Y003174D01*
X002782Y003113D01*
X002746Y003055D01*
X002706Y002998D01*
X002663Y002943D01*
X002617Y002892D01*
X002568Y002842D01*
X002517Y002796D01*
X002463Y002753D01*
X002457Y002760D01*
X002511Y002803D01*
X002562Y002849D01*
X002611Y002898D01*
X002656Y002949D01*
X002699Y003003D01*
X002738Y003060D01*
X002775Y003118D01*
X002808Y003178D01*
X002837Y003241D01*
X002863Y003304D01*
X002885Y003370D01*
X002903Y003436D01*
X002918Y003503D01*
X002929Y003571D01*
X002936Y003640D01*
X002939Y003708D01*
X002938Y003777D01*
X002933Y003846D01*
X002925Y003914D01*
X002912Y003982D01*
X002896Y004048D01*
X002876Y004114D01*
X002852Y004179D01*
X002825Y004242D01*
X002794Y004303D01*
X002760Y004363D01*
X002722Y004421D01*
X002681Y004476D01*
X002637Y004529D01*
X002590Y004579D01*
X002541Y004627D01*
X002489Y004672D01*
X002434Y004714D01*
X002377Y004752D01*
X002318Y004787D01*
X002257Y004819D01*
X002194Y004848D01*
X002130Y004872D01*
X002064Y004894D01*
X001998Y004911D01*
X001930Y004924D01*
X001862Y004934D01*
X001794Y004940D01*
X001725Y004942D01*
X001656Y004940D01*
X001588Y004934D01*
X001520Y004924D01*
X001452Y004911D01*
X001386Y004894D01*
X001320Y004872D01*
X001256Y004848D01*
X001193Y004819D01*
X001132Y004787D01*
X001073Y004752D01*
X001016Y004714D01*
X000961Y004672D01*
X000909Y004627D01*
X000860Y004579D01*
X000813Y004529D01*
X000769Y004476D01*
X000728Y004421D01*
X000690Y004363D01*
X000656Y004303D01*
X000625Y004242D01*
X000598Y004179D01*
X000574Y004114D01*
X000554Y004048D01*
X000538Y003982D01*
X000525Y003914D01*
X000517Y003846D01*
X000512Y003777D01*
X000511Y003708D01*
X000514Y003640D01*
X000521Y003571D01*
X000532Y003503D01*
X000547Y003436D01*
X000565Y003370D01*
X000587Y003304D01*
X000613Y003241D01*
X000642Y003178D01*
X000675Y003118D01*
X000712Y003060D01*
X000751Y003003D01*
X000794Y002949D01*
X000839Y002898D01*
X000888Y002849D01*
X000939Y002803D01*
X000993Y002760D01*
D15*
X000725Y003728D02*
X000727Y003791D01*
X000733Y003853D01*
X000743Y003915D01*
X000756Y003977D01*
X000774Y004037D01*
X000795Y004096D01*
X000820Y004154D01*
X000849Y004210D01*
X000881Y004264D01*
X000916Y004316D01*
X000954Y004365D01*
X000996Y004413D01*
X001040Y004457D01*
X001088Y004499D01*
X001137Y004537D01*
X001189Y004572D01*
X001243Y004604D01*
X001299Y004633D01*
X001357Y004658D01*
X001416Y004679D01*
X001476Y004697D01*
X001538Y004710D01*
X001600Y004720D01*
X001662Y004726D01*
X001725Y004728D01*
X001788Y004726D01*
X001850Y004720D01*
X001912Y004710D01*
X001974Y004697D01*
X002034Y004679D01*
X002093Y004658D01*
X002151Y004633D01*
X002207Y004604D01*
X002261Y004572D01*
X002313Y004537D01*
X002362Y004499D01*
X002410Y004457D01*
X002454Y004413D01*
X002496Y004365D01*
X002534Y004316D01*
X002569Y004264D01*
X002601Y004210D01*
X002630Y004154D01*
X002655Y004096D01*
X002676Y004037D01*
X002694Y003977D01*
X002707Y003915D01*
X002717Y003853D01*
X002723Y003791D01*
X002725Y003728D01*
X002723Y003665D01*
X002717Y003603D01*
X002707Y003541D01*
X002694Y003479D01*
X002676Y003419D01*
X002655Y003360D01*
X002630Y003302D01*
X002601Y003246D01*
X002569Y003192D01*
X002534Y003140D01*
X002496Y003091D01*
X002454Y003043D01*
X002410Y002999D01*
X002362Y002957D01*
X002313Y002919D01*
X002261Y002884D01*
X002207Y002852D01*
X002151Y002823D01*
X002093Y002798D01*
X002034Y002777D01*
X001974Y002759D01*
X001912Y002746D01*
X001850Y002736D01*
X001788Y002730D01*
X001725Y002728D01*
X001662Y002730D01*
X001600Y002736D01*
X001538Y002746D01*
X001476Y002759D01*
X001416Y002777D01*
X001357Y002798D01*
X001299Y002823D01*
X001243Y002852D01*
X001189Y002884D01*
X001137Y002919D01*
X001088Y002957D01*
X001040Y002999D01*
X000996Y003043D01*
X000954Y003091D01*
X000916Y003140D01*
X000881Y003192D01*
X000849Y003246D01*
X000820Y003302D01*
X000795Y003360D01*
X000774Y003419D01*
X000756Y003479D01*
X000743Y003541D01*
X000733Y003603D01*
X000727Y003665D01*
X000725Y003728D01*
D16*
X005241Y008003D03*
D17*
X005858Y008003D03*
D18*
X005858Y008003D03*
X005241Y008003D03*
D19*
X005241Y008004D03*
D20*
X005858Y008004D03*
D21*
X005241Y008004D03*
D22*
X005858Y008004D03*
X005858Y008254D03*
D23*
X005858Y008005D03*
X005241Y008005D03*
D24*
X005241Y008005D03*
D25*
X005858Y008005D03*
D26*
X005858Y008006D03*
X005241Y008006D03*
D27*
X005241Y008006D03*
X005858Y008006D03*
D28*
X005858Y008007D03*
X005858Y008252D03*
X005241Y008007D03*
D29*
X005241Y008007D03*
X005858Y008007D03*
D30*
X005241Y008008D03*
D31*
X005858Y008008D03*
D32*
X005241Y008008D03*
D33*
X005858Y008008D03*
D34*
X005241Y008009D03*
D35*
X005858Y008009D03*
D36*
X005858Y008009D03*
X005858Y008249D03*
X005241Y008009D03*
D37*
X005241Y008010D03*
X005858Y008010D03*
D38*
X005858Y008010D03*
X005241Y008010D03*
D39*
X005241Y008011D03*
D40*
X005858Y008011D03*
D41*
X005241Y008011D03*
D42*
X005858Y008011D03*
D43*
X005858Y008012D03*
X005241Y008012D03*
D44*
X005241Y008012D03*
D45*
X005858Y008012D03*
D46*
X005241Y008013D03*
D47*
X005858Y008013D03*
D48*
X005241Y008013D03*
D49*
X005241Y008242D03*
X005858Y008013D03*
D50*
X005241Y008014D03*
X005241Y008241D03*
D51*
X005858Y008014D03*
D52*
X005241Y008014D03*
D53*
X005858Y008014D03*
X005858Y008244D03*
D54*
X005241Y008241D03*
X005241Y008015D03*
D55*
X005858Y008015D03*
D56*
X005858Y008015D03*
X005858Y008243D03*
X005241Y008015D03*
D57*
X005241Y008016D03*
D58*
X005241Y008240D03*
X005858Y008016D03*
D59*
X005858Y008016D03*
X005241Y008016D03*
X005241Y008239D03*
D60*
X005241Y008017D03*
D61*
X005858Y008017D03*
X005858Y008242D03*
D62*
X005858Y008241D03*
X005858Y008017D03*
X005241Y008017D03*
D63*
X005241Y008018D03*
D64*
X005241Y008238D03*
X005858Y008241D03*
X005858Y008018D03*
D65*
X005241Y008018D03*
D66*
X005858Y008018D03*
X005858Y008240D03*
D67*
X005241Y008237D03*
X005241Y008019D03*
D68*
X005858Y008019D03*
X005858Y008240D03*
D69*
X005241Y008235D03*
X005241Y008020D03*
X005241Y008019D03*
D70*
X005241Y008236D03*
X005858Y008239D03*
X005858Y008019D03*
D71*
X005241Y008020D03*
X005241Y008236D03*
D72*
X005858Y008238D03*
X005858Y008020D03*
D73*
X005858Y008020D03*
X005858Y008239D03*
D74*
X005241Y008235D03*
X005241Y008021D03*
D75*
X005858Y008021D03*
D76*
X005858Y008021D03*
X005858Y008022D03*
X005858Y008236D03*
X005858Y008237D03*
X005241Y008234D03*
X005241Y008234D03*
X005241Y008022D03*
X005241Y008021D03*
D77*
X005241Y008022D03*
D78*
X005241Y008233D03*
X005858Y008237D03*
X005858Y008022D03*
D79*
X005241Y008023D03*
X005241Y008233D03*
D80*
X005858Y008023D03*
D81*
X005858Y008023D03*
X005858Y008025D03*
X005858Y008233D03*
X005858Y008235D03*
X005241Y008232D03*
X005241Y008231D03*
X005241Y008025D03*
X005241Y008023D03*
D82*
X005241Y008024D03*
X005241Y008024D03*
X005241Y008230D03*
X005241Y008231D03*
X005241Y008232D03*
X005858Y008234D03*
X005858Y008234D03*
X005858Y008235D03*
X005858Y008025D03*
X005858Y008024D03*
X005858Y008024D03*
D83*
X005241Y008025D03*
X005241Y008026D03*
X005241Y008027D03*
X005241Y008028D03*
X005241Y008029D03*
X005241Y008029D03*
X005241Y008030D03*
X005241Y008031D03*
X005241Y008032D03*
X005241Y008033D03*
X005241Y008034D03*
X005241Y008034D03*
X005241Y008035D03*
X005241Y008036D03*
X005241Y008037D03*
X005241Y008038D03*
X005241Y008039D03*
X005241Y008039D03*
X005241Y008040D03*
X005241Y008041D03*
X005241Y008042D03*
X005241Y008043D03*
X005241Y008044D03*
X005241Y008044D03*
X005241Y008045D03*
X005241Y008046D03*
X005241Y008047D03*
X005241Y008048D03*
X005241Y008049D03*
X005241Y008049D03*
X005241Y008050D03*
X005241Y008051D03*
X005241Y008052D03*
X005241Y008053D03*
X005241Y008054D03*
X005241Y008054D03*
X005241Y008055D03*
X005241Y008056D03*
X005241Y008057D03*
X005241Y008058D03*
X005241Y008059D03*
X005241Y008059D03*
X005241Y008060D03*
X005241Y008061D03*
X005241Y008062D03*
X005241Y008063D03*
X005241Y008064D03*
X005241Y008064D03*
X005241Y008065D03*
X005241Y008066D03*
X005241Y008067D03*
X005241Y008068D03*
X005241Y008069D03*
X005241Y008069D03*
X005241Y008070D03*
X005241Y008071D03*
X005241Y008072D03*
X005241Y008073D03*
X005241Y008074D03*
X005241Y008074D03*
X005241Y008075D03*
X005241Y008076D03*
X005241Y008077D03*
X005241Y008078D03*
X005241Y008079D03*
X005241Y008079D03*
X005241Y008080D03*
X005241Y008081D03*
X005241Y008082D03*
X005241Y008083D03*
X005241Y008084D03*
X005241Y008084D03*
X005241Y008085D03*
X005241Y008086D03*
X005241Y008087D03*
X005241Y008088D03*
X005241Y008089D03*
X005241Y008089D03*
X005241Y008090D03*
X005241Y008091D03*
X005241Y008092D03*
X005241Y008093D03*
X005241Y008094D03*
X005241Y008094D03*
X005241Y008095D03*
X005241Y008096D03*
X005241Y008097D03*
X005241Y008098D03*
X005241Y008099D03*
X005241Y008099D03*
X005241Y008100D03*
X005241Y008101D03*
X005241Y008102D03*
X005241Y008103D03*
X005241Y008104D03*
X005241Y008104D03*
X005241Y008105D03*
X005241Y008106D03*
X005241Y008107D03*
X005241Y008108D03*
X005241Y008109D03*
X005241Y008109D03*
X005241Y008110D03*
X005241Y008111D03*
X005241Y008112D03*
X005241Y008113D03*
X005241Y008114D03*
X005241Y008114D03*
X005241Y008115D03*
X005241Y008116D03*
X005241Y008117D03*
X005241Y008118D03*
X005241Y008119D03*
X005241Y008119D03*
X005241Y008120D03*
X005241Y008121D03*
X005241Y008122D03*
X005241Y008123D03*
X005241Y008124D03*
X005241Y008124D03*
X005241Y008125D03*
X005241Y008126D03*
X005241Y008127D03*
X005241Y008128D03*
X005241Y008129D03*
X005241Y008129D03*
X005241Y008130D03*
X005241Y008131D03*
X005241Y008132D03*
X005241Y008133D03*
X005241Y008134D03*
X005241Y008134D03*
X005241Y008135D03*
X005241Y008136D03*
X005241Y008137D03*
X005241Y008138D03*
X005241Y008139D03*
X005241Y008139D03*
X005241Y008140D03*
X005241Y008141D03*
X005241Y008142D03*
X005241Y008143D03*
X005241Y008144D03*
X005241Y008144D03*
X005241Y008145D03*
X005241Y008146D03*
X005241Y008147D03*
X005241Y008148D03*
X005241Y008149D03*
X005241Y008149D03*
X005241Y008150D03*
X005241Y008151D03*
X005241Y008152D03*
X005241Y008153D03*
X005241Y008154D03*
X005241Y008154D03*
X005241Y008155D03*
X005241Y008156D03*
X005241Y008157D03*
X005241Y008158D03*
X005241Y008159D03*
X005241Y008159D03*
X005241Y008160D03*
X005241Y008161D03*
X005241Y008162D03*
X005241Y008163D03*
X005241Y008164D03*
X005241Y008164D03*
X005241Y008165D03*
X005241Y008166D03*
X005241Y008167D03*
X005241Y008168D03*
X005241Y008169D03*
X005241Y008169D03*
X005241Y008170D03*
X005241Y008171D03*
X005241Y008172D03*
X005241Y008173D03*
X005241Y008174D03*
X005241Y008174D03*
X005241Y008175D03*
X005241Y008176D03*
X005241Y008177D03*
X005241Y008178D03*
X005241Y008179D03*
X005241Y008179D03*
X005241Y008180D03*
X005241Y008181D03*
X005241Y008182D03*
X005241Y008183D03*
X005241Y008184D03*
X005241Y008184D03*
X005241Y008185D03*
X005241Y008186D03*
X005241Y008187D03*
X005241Y008188D03*
X005241Y008189D03*
X005241Y008189D03*
X005241Y008190D03*
X005241Y008191D03*
X005241Y008192D03*
X005241Y008193D03*
X005241Y008194D03*
X005241Y008194D03*
X005241Y008195D03*
X005241Y008196D03*
X005241Y008197D03*
X005241Y008198D03*
X005241Y008199D03*
X005241Y008199D03*
X005241Y008200D03*
X005241Y008201D03*
X005241Y008202D03*
X005241Y008203D03*
X005241Y008204D03*
X005241Y008204D03*
X005241Y008205D03*
X005241Y008206D03*
X005241Y008207D03*
X005241Y008208D03*
X005241Y008209D03*
X005241Y008209D03*
X005241Y008210D03*
X005241Y008211D03*
X005241Y008212D03*
X005241Y008213D03*
X005241Y008214D03*
X005241Y008214D03*
X005241Y008215D03*
X005241Y008216D03*
X005241Y008217D03*
X005241Y008218D03*
X005241Y008219D03*
X005241Y008219D03*
X005241Y008220D03*
X005241Y008221D03*
X005241Y008222D03*
X005241Y008223D03*
X005241Y008224D03*
X005241Y008224D03*
X005241Y008225D03*
X005241Y008226D03*
X005241Y008227D03*
X005241Y008228D03*
X005241Y008229D03*
X005241Y008229D03*
D84*
X005241Y008230D03*
X005241Y008228D03*
X005241Y008227D03*
X005241Y008226D03*
X005241Y008225D03*
X005241Y008223D03*
X005241Y008222D03*
X005241Y008221D03*
X005241Y008220D03*
X005241Y008218D03*
X005241Y008217D03*
X005241Y008216D03*
X005241Y008215D03*
X005241Y008213D03*
X005241Y008212D03*
X005241Y008211D03*
X005241Y008210D03*
X005241Y008208D03*
X005241Y008207D03*
X005241Y008206D03*
X005241Y008205D03*
X005241Y008203D03*
X005241Y008202D03*
X005241Y008201D03*
X005241Y008200D03*
X005241Y008198D03*
X005241Y008197D03*
X005241Y008196D03*
X005241Y008195D03*
X005241Y008193D03*
X005241Y008192D03*
X005241Y008191D03*
X005241Y008190D03*
X005241Y008188D03*
X005241Y008187D03*
X005241Y008186D03*
X005241Y008185D03*
X005241Y008183D03*
X005241Y008182D03*
X005241Y008181D03*
X005241Y008180D03*
X005241Y008178D03*
X005241Y008177D03*
X005241Y008176D03*
X005241Y008175D03*
X005241Y008173D03*
X005241Y008172D03*
X005241Y008171D03*
X005241Y008170D03*
X005241Y008168D03*
X005241Y008167D03*
X005241Y008166D03*
X005241Y008165D03*
X005241Y008163D03*
X005241Y008162D03*
X005241Y008161D03*
X005241Y008160D03*
X005241Y008158D03*
X005241Y008157D03*
X005241Y008156D03*
X005241Y008155D03*
X005241Y008153D03*
X005241Y008152D03*
X005241Y008151D03*
X005241Y008150D03*
X005241Y008148D03*
X005241Y008147D03*
X005241Y008146D03*
X005241Y008145D03*
X005241Y008143D03*
X005241Y008142D03*
X005241Y008141D03*
X005241Y008140D03*
X005241Y008138D03*
X005241Y008137D03*
X005241Y008136D03*
X005241Y008135D03*
X005241Y008133D03*
X005241Y008132D03*
X005241Y008131D03*
X005241Y008130D03*
X005241Y008128D03*
X005241Y008127D03*
X005241Y008126D03*
X005241Y008125D03*
X005241Y008123D03*
X005241Y008122D03*
X005241Y008121D03*
X005241Y008120D03*
X005241Y008118D03*
X005241Y008117D03*
X005241Y008116D03*
X005241Y008115D03*
X005241Y008113D03*
X005241Y008112D03*
X005241Y008111D03*
X005241Y008110D03*
X005241Y008108D03*
X005241Y008107D03*
X005241Y008106D03*
X005241Y008105D03*
X005241Y008103D03*
X005241Y008102D03*
X005241Y008101D03*
X005241Y008100D03*
X005241Y008098D03*
X005241Y008097D03*
X005241Y008096D03*
X005241Y008095D03*
X005241Y008093D03*
X005241Y008092D03*
X005241Y008091D03*
X005241Y008090D03*
X005241Y008088D03*
X005241Y008087D03*
X005241Y008086D03*
X005241Y008085D03*
X005241Y008083D03*
X005241Y008082D03*
X005241Y008081D03*
X005241Y008080D03*
X005241Y008078D03*
X005241Y008077D03*
X005241Y008076D03*
X005241Y008075D03*
X005241Y008073D03*
X005241Y008072D03*
X005241Y008071D03*
X005241Y008070D03*
X005241Y008068D03*
X005241Y008067D03*
X005241Y008066D03*
X005241Y008065D03*
X005241Y008063D03*
X005241Y008062D03*
X005241Y008061D03*
X005241Y008060D03*
X005241Y008058D03*
X005241Y008057D03*
X005241Y008056D03*
X005241Y008055D03*
X005241Y008053D03*
X005241Y008052D03*
X005241Y008051D03*
X005241Y008050D03*
X005241Y008048D03*
X005241Y008047D03*
X005241Y008046D03*
X005241Y008045D03*
X005241Y008043D03*
X005241Y008042D03*
X005241Y008041D03*
X005241Y008040D03*
X005241Y008038D03*
X005241Y008037D03*
X005241Y008036D03*
X005241Y008035D03*
X005241Y008033D03*
X005241Y008032D03*
X005241Y008031D03*
X005241Y008030D03*
X005241Y008028D03*
X005241Y008027D03*
X005241Y008026D03*
D85*
X005858Y008027D03*
X005858Y008028D03*
X005858Y008030D03*
X005858Y008031D03*
X005858Y008032D03*
X005858Y008033D03*
X005858Y008035D03*
X005858Y008036D03*
X005858Y008037D03*
X005858Y008038D03*
X005858Y008040D03*
X005858Y008041D03*
X005858Y008042D03*
X005858Y008043D03*
X005858Y008045D03*
X005858Y008046D03*
X005858Y008047D03*
X005858Y008048D03*
X005858Y008050D03*
X005858Y008051D03*
X005858Y008052D03*
X005858Y008053D03*
X005858Y008055D03*
X005858Y008056D03*
X005858Y008057D03*
X005858Y008058D03*
X005858Y008060D03*
X005858Y008061D03*
X005858Y008062D03*
X005858Y008063D03*
X005858Y008065D03*
X005858Y008066D03*
X005858Y008067D03*
X005858Y008068D03*
X005858Y008070D03*
X005858Y008071D03*
X005858Y008072D03*
X005858Y008073D03*
X005858Y008075D03*
X005858Y008076D03*
X005858Y008077D03*
X005858Y008078D03*
X005858Y008080D03*
X005858Y008081D03*
X005858Y008082D03*
X005858Y008083D03*
X005858Y008085D03*
X005858Y008086D03*
X005858Y008087D03*
X005858Y008088D03*
X005858Y008090D03*
X005858Y008091D03*
X005858Y008092D03*
X005858Y008093D03*
X005858Y008095D03*
X005858Y008096D03*
X005858Y008097D03*
X005858Y008098D03*
X005858Y008100D03*
X005858Y008101D03*
X005858Y008102D03*
X005858Y008103D03*
X005858Y008105D03*
X005858Y008106D03*
X005858Y008107D03*
X005858Y008108D03*
X005858Y008110D03*
X005858Y008111D03*
X005858Y008112D03*
X005858Y008113D03*
X005858Y008115D03*
X005858Y008116D03*
X005858Y008117D03*
X005858Y008118D03*
X005858Y008120D03*
X005858Y008121D03*
X005858Y008122D03*
X005858Y008123D03*
X005858Y008125D03*
X005858Y008126D03*
X005858Y008127D03*
X005858Y008128D03*
X005858Y008130D03*
X005858Y008131D03*
X005858Y008132D03*
X005858Y008133D03*
X005858Y008135D03*
X005858Y008136D03*
X005858Y008137D03*
X005858Y008138D03*
X005858Y008140D03*
X005858Y008141D03*
X005858Y008142D03*
X005858Y008143D03*
X005858Y008145D03*
X005858Y008146D03*
X005858Y008147D03*
X005858Y008148D03*
X005858Y008150D03*
X005858Y008151D03*
X005858Y008152D03*
X005858Y008153D03*
X005858Y008155D03*
X005858Y008156D03*
X005858Y008157D03*
X005858Y008158D03*
X005858Y008160D03*
X005858Y008161D03*
X005858Y008162D03*
X005858Y008163D03*
X005858Y008165D03*
X005858Y008166D03*
X005858Y008167D03*
X005858Y008168D03*
X005858Y008170D03*
X005858Y008171D03*
X005858Y008172D03*
X005858Y008173D03*
X005858Y008175D03*
X005858Y008176D03*
X005858Y008177D03*
X005858Y008178D03*
X005858Y008180D03*
X005858Y008181D03*
X005858Y008182D03*
X005858Y008183D03*
X005858Y008185D03*
X005858Y008186D03*
X005858Y008187D03*
X005858Y008188D03*
X005858Y008190D03*
X005858Y008191D03*
X005858Y008192D03*
X005858Y008193D03*
X005858Y008195D03*
X005858Y008196D03*
X005858Y008197D03*
X005858Y008198D03*
X005858Y008200D03*
X005858Y008201D03*
X005858Y008202D03*
X005858Y008203D03*
X005858Y008205D03*
X005858Y008206D03*
X005858Y008207D03*
X005858Y008208D03*
X005858Y008210D03*
X005858Y008211D03*
X005858Y008212D03*
X005858Y008213D03*
X005858Y008215D03*
X005858Y008216D03*
X005858Y008217D03*
X005858Y008218D03*
X005858Y008220D03*
X005858Y008221D03*
X005858Y008222D03*
X005858Y008223D03*
X005858Y008225D03*
X005858Y008226D03*
X005858Y008227D03*
X005858Y008228D03*
X005858Y008230D03*
X005858Y008231D03*
X005858Y008232D03*
X005858Y008026D03*
D86*
X005858Y008026D03*
X005858Y008027D03*
X005858Y008028D03*
X005858Y008029D03*
X005858Y008029D03*
X005858Y008030D03*
X005858Y008031D03*
X005858Y008032D03*
X005858Y008033D03*
X005858Y008034D03*
X005858Y008034D03*
X005858Y008035D03*
X005858Y008036D03*
X005858Y008037D03*
X005858Y008038D03*
X005858Y008039D03*
X005858Y008039D03*
X005858Y008040D03*
X005858Y008041D03*
X005858Y008042D03*
X005858Y008043D03*
X005858Y008044D03*
X005858Y008044D03*
X005858Y008045D03*
X005858Y008046D03*
X005858Y008047D03*
X005858Y008048D03*
X005858Y008049D03*
X005858Y008049D03*
X005858Y008050D03*
X005858Y008051D03*
X005858Y008052D03*
X005858Y008053D03*
X005858Y008054D03*
X005858Y008054D03*
X005858Y008055D03*
X005858Y008056D03*
X005858Y008057D03*
X005858Y008058D03*
X005858Y008059D03*
X005858Y008059D03*
X005858Y008060D03*
X005858Y008061D03*
X005858Y008062D03*
X005858Y008063D03*
X005858Y008064D03*
X005858Y008064D03*
X005858Y008065D03*
X005858Y008066D03*
X005858Y008067D03*
X005858Y008068D03*
X005858Y008069D03*
X005858Y008069D03*
X005858Y008070D03*
X005858Y008071D03*
X005858Y008072D03*
X005858Y008073D03*
X005858Y008074D03*
X005858Y008074D03*
X005858Y008075D03*
X005858Y008076D03*
X005858Y008077D03*
X005858Y008078D03*
X005858Y008079D03*
X005858Y008079D03*
X005858Y008080D03*
X005858Y008081D03*
X005858Y008082D03*
X005858Y008083D03*
X005858Y008084D03*
X005858Y008084D03*
X005858Y008085D03*
X005858Y008086D03*
X005858Y008087D03*
X005858Y008088D03*
X005858Y008089D03*
X005858Y008089D03*
X005858Y008090D03*
X005858Y008091D03*
X005858Y008092D03*
X005858Y008093D03*
X005858Y008094D03*
X005858Y008094D03*
X005858Y008095D03*
X005858Y008096D03*
X005858Y008097D03*
X005858Y008098D03*
X005858Y008099D03*
X005858Y008099D03*
X005858Y008100D03*
X005858Y008101D03*
X005858Y008102D03*
X005858Y008103D03*
X005858Y008104D03*
X005858Y008104D03*
X005858Y008105D03*
X005858Y008106D03*
X005858Y008107D03*
X005858Y008108D03*
X005858Y008109D03*
X005858Y008109D03*
X005858Y008110D03*
X005858Y008111D03*
X005858Y008112D03*
X005858Y008113D03*
X005858Y008114D03*
X005858Y008114D03*
X005858Y008115D03*
X005858Y008116D03*
X005858Y008117D03*
X005858Y008118D03*
X005858Y008119D03*
X005858Y008119D03*
X005858Y008120D03*
X005858Y008121D03*
X005858Y008122D03*
X005858Y008123D03*
X005858Y008124D03*
X005858Y008124D03*
X005858Y008125D03*
X005858Y008126D03*
X005858Y008127D03*
X005858Y008128D03*
X005858Y008129D03*
X005858Y008129D03*
X005858Y008130D03*
X005858Y008131D03*
X005858Y008132D03*
X005858Y008133D03*
X005858Y008134D03*
X005858Y008134D03*
X005858Y008135D03*
X005858Y008136D03*
X005858Y008137D03*
X005858Y008138D03*
X005858Y008139D03*
X005858Y008139D03*
X005858Y008140D03*
X005858Y008141D03*
X005858Y008142D03*
X005858Y008143D03*
X005858Y008144D03*
X005858Y008144D03*
X005858Y008145D03*
X005858Y008146D03*
X005858Y008147D03*
X005858Y008148D03*
X005858Y008149D03*
X005858Y008149D03*
X005858Y008150D03*
X005858Y008151D03*
X005858Y008152D03*
X005858Y008153D03*
X005858Y008154D03*
X005858Y008154D03*
X005858Y008155D03*
X005858Y008156D03*
X005858Y008157D03*
X005858Y008158D03*
X005858Y008159D03*
X005858Y008159D03*
X005858Y008160D03*
X005858Y008161D03*
X005858Y008162D03*
X005858Y008163D03*
X005858Y008164D03*
X005858Y008164D03*
X005858Y008165D03*
X005858Y008166D03*
X005858Y008167D03*
X005858Y008168D03*
X005858Y008169D03*
X005858Y008169D03*
X005858Y008170D03*
X005858Y008171D03*
X005858Y008172D03*
X005858Y008173D03*
X005858Y008174D03*
X005858Y008174D03*
X005858Y008175D03*
X005858Y008176D03*
X005858Y008177D03*
X005858Y008178D03*
X005858Y008179D03*
X005858Y008179D03*
X005858Y008180D03*
X005858Y008181D03*
X005858Y008182D03*
X005858Y008183D03*
X005858Y008184D03*
X005858Y008184D03*
X005858Y008185D03*
X005858Y008186D03*
X005858Y008187D03*
X005858Y008188D03*
X005858Y008189D03*
X005858Y008189D03*
X005858Y008190D03*
X005858Y008191D03*
X005858Y008192D03*
X005858Y008193D03*
X005858Y008194D03*
X005858Y008194D03*
X005858Y008195D03*
X005858Y008196D03*
X005858Y008197D03*
X005858Y008198D03*
X005858Y008199D03*
X005858Y008199D03*
X005858Y008200D03*
X005858Y008201D03*
X005858Y008202D03*
X005858Y008203D03*
X005858Y008204D03*
X005858Y008204D03*
X005858Y008205D03*
X005858Y008206D03*
X005858Y008207D03*
X005858Y008208D03*
X005858Y008209D03*
X005858Y008209D03*
X005858Y008210D03*
X005858Y008211D03*
X005858Y008212D03*
X005858Y008213D03*
X005858Y008214D03*
X005858Y008214D03*
X005858Y008215D03*
X005858Y008216D03*
X005858Y008217D03*
X005858Y008218D03*
X005858Y008219D03*
X005858Y008219D03*
X005858Y008220D03*
X005858Y008221D03*
X005858Y008222D03*
X005858Y008223D03*
X005858Y008224D03*
X005858Y008224D03*
X005858Y008225D03*
X005858Y008226D03*
X005858Y008227D03*
X005858Y008228D03*
X005858Y008229D03*
X005858Y008229D03*
X005858Y008230D03*
X005858Y008231D03*
X005858Y008232D03*
X005858Y008233D03*
D87*
X005858Y008236D03*
D88*
X005241Y008237D03*
D89*
X005858Y008238D03*
D90*
X005241Y008238D03*
D91*
X005241Y008239D03*
D92*
X005241Y008240D03*
D93*
X005241Y008242D03*
D94*
X005858Y008242D03*
D95*
X005241Y008243D03*
D96*
X005241Y008243D03*
D97*
X005858Y008243D03*
D98*
X005241Y008244D03*
D99*
X005858Y008244D03*
D100*
X005241Y008244D03*
D101*
X005241Y008245D03*
D102*
X005858Y008245D03*
D103*
X005241Y008245D03*
D104*
X005858Y008245D03*
D105*
X005241Y008246D03*
D106*
X005858Y008246D03*
D107*
X005241Y008246D03*
D108*
X005858Y008246D03*
D109*
X005241Y008247D03*
D110*
X005858Y008247D03*
D111*
X005241Y008247D03*
D112*
X005858Y008247D03*
D113*
X005241Y008248D03*
D114*
X005858Y008248D03*
D115*
X005241Y008248D03*
D116*
X005858Y008248D03*
D117*
X005241Y008249D03*
D118*
X005858Y008249D03*
D119*
X005241Y008249D03*
D120*
X005241Y008250D03*
D121*
X005858Y008250D03*
D122*
X005241Y008250D03*
D123*
X005858Y008250D03*
D124*
X005241Y008251D03*
D125*
X005858Y008251D03*
D126*
X005241Y008251D03*
D127*
X005858Y008251D03*
D128*
X005241Y008252D03*
D129*
X005241Y008252D03*
D130*
X005858Y008252D03*
D131*
X005243Y008253D03*
D132*
X005858Y008253D03*
D133*
X005243Y008253D03*
X005243Y008255D03*
D134*
X005858Y008253D03*
D135*
X005243Y008254D03*
X005243Y008254D03*
D136*
X005858Y008254D03*
D137*
X005858Y008255D03*
D138*
X005242Y008256D03*
X005242Y008255D03*
D139*
X005858Y008255D03*
D140*
X005242Y008256D03*
D141*
X005858Y008256D03*
D142*
X005862Y008256D03*
X005862Y008257D03*
X005862Y008258D03*
D143*
X005242Y008258D03*
X005242Y008257D03*
D144*
X005242Y008257D03*
X005242Y008258D03*
D145*
X005862Y008257D03*
D146*
X005862Y008258D03*
X005862Y008260D03*
X005233Y008317D03*
D147*
X005242Y008259D03*
X005242Y008259D03*
D148*
X005233Y008316D03*
X005233Y008317D03*
X005233Y008318D03*
X005862Y008259D03*
X005862Y008259D03*
D149*
X005242Y008260D03*
D150*
X005241Y008260D03*
X005241Y008261D03*
D151*
X005863Y008262D03*
X005863Y008261D03*
X005863Y008260D03*
D152*
X005241Y008261D03*
D153*
X005863Y008261D03*
D154*
X005241Y008262D03*
X005241Y008263D03*
D155*
X005241Y008263D03*
X005241Y008262D03*
D156*
X005233Y008320D03*
X005233Y008321D03*
X005863Y008263D03*
X005863Y008262D03*
D157*
X005863Y008263D03*
X005863Y008264D03*
X005233Y008320D03*
D158*
X005241Y008264D03*
X005241Y008264D03*
D159*
X005233Y008321D03*
X005233Y008322D03*
X005233Y008323D03*
X005863Y008266D03*
X005863Y008265D03*
X005863Y008264D03*
D160*
X005241Y008265D03*
D161*
X005233Y008322D03*
X005863Y008266D03*
X005863Y008265D03*
D162*
X005241Y008266D03*
X005241Y008267D03*
X005241Y008265D03*
D163*
X005241Y008266D03*
D164*
X005863Y008267D03*
X005863Y008268D03*
D165*
X005240Y008268D03*
X005240Y008267D03*
D166*
X005863Y008268D03*
X005863Y008267D03*
D167*
X005240Y008268D03*
D168*
X005240Y008269D03*
X005240Y008269D03*
D169*
X005232Y008325D03*
X005232Y008326D03*
X005863Y008270D03*
X005863Y008269D03*
X005863Y008269D03*
D170*
X005240Y008270D03*
D171*
X005232Y008325D03*
X005232Y008326D03*
X005863Y008270D03*
D172*
X005240Y008271D03*
X005240Y008272D03*
X005240Y008270D03*
D173*
X005240Y008271D03*
D174*
X005864Y008272D03*
X005864Y008271D03*
D175*
X005864Y008271D03*
X005864Y008272D03*
D176*
X005240Y008273D03*
X005240Y008272D03*
D177*
X005240Y008273D03*
D178*
X005231Y008329D03*
X005231Y008329D03*
X005864Y008274D03*
X005864Y008274D03*
X005864Y008273D03*
D179*
X005864Y008273D03*
X005231Y008328D03*
D180*
X005239Y008275D03*
X005239Y008274D03*
X005239Y008274D03*
D181*
X005239Y008275D03*
D182*
X005231Y008330D03*
X005231Y008331D03*
X005864Y008276D03*
X005864Y008275D03*
D183*
X005864Y008275D03*
X005864Y008276D03*
X005231Y008330D03*
X005231Y008331D03*
D184*
X005239Y008276D03*
D185*
X005239Y008276D03*
X005239Y008277D03*
D186*
X005864Y008278D03*
X005864Y008279D03*
X005864Y008277D03*
D187*
X005239Y008278D03*
X005239Y008277D03*
D188*
X005864Y008278D03*
X005864Y008277D03*
D189*
X005239Y008278D03*
D190*
X005239Y008279D03*
X005239Y008279D03*
X005239Y008280D03*
D191*
X005231Y008334D03*
X005231Y008334D03*
X005865Y008280D03*
X005865Y008279D03*
D192*
X005239Y008280D03*
D193*
X005231Y008333D03*
X005231Y008335D03*
X005865Y008281D03*
X005865Y008280D03*
D194*
X005239Y008281D03*
D195*
X005239Y008281D03*
X005239Y008282D03*
D196*
X005865Y008283D03*
X005865Y008282D03*
X005865Y008281D03*
D197*
X005238Y008282D03*
X005238Y008283D03*
D198*
X005865Y008282D03*
D199*
X005238Y008283D03*
X005238Y008284D03*
D200*
X005230Y008337D03*
X005865Y008285D03*
X005865Y008283D03*
D201*
X005865Y008284D03*
X005865Y008284D03*
X005230Y008337D03*
X005230Y008338D03*
D202*
X005238Y008285D03*
X005238Y008284D03*
D203*
X005238Y008285D03*
D204*
X005230Y008339D03*
X005230Y008339D03*
X005865Y008287D03*
X005865Y008286D03*
X005865Y008285D03*
D205*
X005238Y008286D03*
D206*
X005230Y008338D03*
X005230Y008340D03*
X005865Y008286D03*
D207*
X005238Y008287D03*
X005238Y008286D03*
D208*
X005238Y008287D03*
X005238Y008288D03*
D209*
X005866Y008288D03*
X005866Y008287D03*
D210*
X005238Y008288D03*
X005238Y008289D03*
D211*
X005866Y008289D03*
X005866Y008288D03*
D212*
X005237Y008289D03*
X005237Y008290D03*
D213*
X005229Y008342D03*
X005229Y008343D03*
X005866Y008291D03*
X005866Y008290D03*
X005866Y008289D03*
D214*
X005237Y008290D03*
D215*
X005229Y008342D03*
X005229Y008343D03*
X005866Y008291D03*
X005866Y008290D03*
D216*
X005237Y008291D03*
X005237Y008292D03*
D217*
X005237Y008292D03*
X005237Y008291D03*
D218*
X005866Y008292D03*
X005866Y008293D03*
D219*
X005866Y008293D03*
X005866Y008292D03*
D220*
X005237Y008293D03*
X005237Y008294D03*
D221*
X005237Y008293D03*
D222*
X005229Y008345D03*
X005229Y008346D03*
X005866Y008295D03*
X005866Y008294D03*
X005866Y008294D03*
D223*
X005236Y008295D03*
X005236Y008294D03*
D224*
X005236Y008295D03*
D225*
X005229Y008346D03*
X005866Y008295D03*
D226*
X005236Y008296D03*
X005236Y008297D03*
D227*
X005229Y008347D03*
X005229Y008348D03*
X005867Y008297D03*
X005867Y008296D03*
D228*
X005236Y008297D03*
X005236Y008296D03*
D229*
X005229Y008347D03*
X005229Y008348D03*
X005867Y008297D03*
X005867Y008296D03*
D230*
X005236Y008298D03*
X005236Y008299D03*
D231*
X005867Y008299D03*
X005867Y008299D03*
X005867Y008298D03*
D232*
X005236Y008298D03*
D233*
X005867Y008298D03*
D234*
X005236Y008299D03*
X005236Y008300D03*
D235*
X005236Y008300D03*
X005236Y008301D03*
D236*
X005228Y008351D03*
X005867Y008301D03*
X005867Y008300D03*
D237*
X005867Y008300D03*
X005867Y008301D03*
X005228Y008350D03*
X005228Y008351D03*
X005228Y008352D03*
D238*
X005235Y008302D03*
X005235Y008301D03*
D239*
X005868Y008302D03*
X005868Y008303D03*
X005868Y008304D03*
D240*
X005235Y008302D03*
D241*
X005868Y008303D03*
X005868Y008302D03*
D242*
X005235Y008303D03*
X005235Y008304D03*
D243*
X005235Y008303D03*
D244*
X005235Y008304D03*
X005235Y008305D03*
D245*
X005228Y008354D03*
X005228Y008354D03*
X005868Y008305D03*
X005868Y008304D03*
D246*
X005235Y008305D03*
X005235Y008306D03*
D247*
X005228Y008355D03*
X005868Y008306D03*
X005868Y008305D03*
D248*
X005235Y008306D03*
X005235Y008307D03*
D249*
X005228Y008355D03*
X005228Y008356D03*
X005228Y008357D03*
X005868Y008308D03*
X005868Y008307D03*
X005868Y008306D03*
D250*
X005235Y008307D03*
D251*
X005228Y008356D03*
X005868Y008307D03*
D252*
X005234Y008308D03*
X005234Y008309D03*
X005234Y008309D03*
D253*
X005234Y008308D03*
D254*
X005868Y008308D03*
X005868Y008310D03*
D255*
X005868Y008309D03*
X005868Y008309D03*
D256*
X005234Y008310D03*
X005234Y008311D03*
D257*
X005234Y008310D03*
D258*
X005227Y008359D03*
X005227Y008359D03*
X005227Y008360D03*
X005868Y008312D03*
X005868Y008311D03*
X005868Y008310D03*
D259*
X005868Y008311D03*
X005227Y008360D03*
D260*
X005234Y008312D03*
X005234Y008311D03*
D261*
X005234Y008312D03*
D262*
X005869Y008313D03*
X005869Y008312D03*
D263*
X005234Y008313D03*
X005234Y008314D03*
X005234Y008314D03*
D264*
X005869Y008314D03*
X005869Y008313D03*
D265*
X005234Y008313D03*
D266*
X005226Y008363D03*
X005226Y008364D03*
X005869Y008316D03*
X005869Y008315D03*
X005869Y008314D03*
D267*
X005234Y008315D03*
X005234Y008316D03*
D268*
X005226Y008362D03*
X005226Y008363D03*
X005869Y008316D03*
X005869Y008315D03*
D269*
X005234Y008315D03*
D270*
X005226Y008364D03*
X005226Y008365D03*
X005869Y008318D03*
X005869Y008317D03*
D271*
X005869Y008317D03*
X005869Y008318D03*
X005226Y008365D03*
D272*
X005233Y008318D03*
D273*
X005233Y008319D03*
X005233Y008319D03*
D274*
X005869Y008320D03*
X005869Y008319D03*
X005869Y008319D03*
D275*
X005869Y008320D03*
D276*
X005870Y008321D03*
X005870Y008322D03*
X005226Y008367D03*
X005226Y008368D03*
D277*
X005226Y008368D03*
X005226Y008369D03*
X005870Y008322D03*
X005870Y008321D03*
D278*
X005870Y008323D03*
X005870Y008324D03*
X005870Y008324D03*
D279*
X005232Y008323D03*
D280*
X005870Y008323D03*
D281*
X005232Y008324D03*
X005232Y008324D03*
D282*
X005225Y008371D03*
X005225Y008372D03*
X005870Y008326D03*
X005870Y008325D03*
D283*
X005870Y008325D03*
X005870Y008326D03*
X005225Y008371D03*
X005225Y008372D03*
D284*
X005232Y008328D03*
X005232Y008327D03*
D285*
X005225Y008373D03*
X005225Y008374D03*
X005870Y008329D03*
X005870Y008328D03*
X005870Y008327D03*
D286*
X005232Y008327D03*
D287*
X005225Y008373D03*
X005870Y008328D03*
X005870Y008327D03*
D288*
X005871Y008329D03*
X005871Y008330D03*
D289*
X005871Y008330D03*
X005871Y008331D03*
D290*
X005871Y008331D03*
X005871Y008332D03*
X005871Y008333D03*
X005224Y008376D03*
X005224Y008377D03*
D291*
X005231Y008333D03*
X005231Y008332D03*
D292*
X005231Y008332D03*
D293*
X005224Y008376D03*
X005224Y008377D03*
X005871Y008332D03*
D294*
X005871Y008333D03*
X005871Y008335D03*
D295*
X005871Y008334D03*
X005871Y008334D03*
D296*
X005230Y008335D03*
X005230Y008336D03*
D297*
X005224Y008379D03*
X005224Y008380D03*
X005871Y008337D03*
X005871Y008336D03*
X005871Y008335D03*
D298*
X005230Y008336D03*
D299*
X005224Y008380D03*
X005224Y008381D03*
X005871Y008336D03*
D300*
X005872Y008337D03*
X005872Y008338D03*
X005224Y008382D03*
D301*
X005224Y008382D03*
X005224Y008381D03*
X005872Y008339D03*
X005872Y008338D03*
D302*
X005872Y008339D03*
X005872Y008340D03*
X005872Y008341D03*
D303*
X005872Y008341D03*
X005872Y008340D03*
D304*
X005230Y008341D03*
X005230Y008340D03*
D305*
X005230Y008341D03*
D306*
X005223Y008384D03*
X005223Y008385D03*
X005872Y008343D03*
X005872Y008342D03*
D307*
X005872Y008342D03*
X005872Y008343D03*
X005223Y008385D03*
X005223Y008386D03*
D308*
X005229Y008344D03*
X005229Y008344D03*
D309*
X005873Y008345D03*
X005873Y008344D03*
X005873Y008344D03*
D310*
X005229Y008345D03*
D311*
X005873Y008345D03*
D312*
X005873Y008346D03*
X005873Y008347D03*
X005223Y008388D03*
D313*
X005223Y008388D03*
X005223Y008389D03*
X005223Y008389D03*
X005873Y008347D03*
X005873Y008346D03*
D314*
X005873Y008348D03*
X005873Y008349D03*
X005873Y008349D03*
X005223Y008390D03*
D315*
X005223Y008390D03*
X005223Y008391D03*
X005873Y008348D03*
D316*
X005229Y008349D03*
X005229Y008349D03*
D317*
X005229Y008350D03*
D318*
X005873Y008351D03*
X005873Y008350D03*
D319*
X005873Y008350D03*
X005873Y008351D03*
D320*
X005873Y008352D03*
X005873Y008353D03*
X005873Y008354D03*
X005222Y008393D03*
X005222Y008394D03*
X005222Y008394D03*
D321*
X005228Y008353D03*
X005228Y008352D03*
D322*
X005222Y008393D03*
X005873Y008353D03*
X005873Y008352D03*
D323*
X005228Y008353D03*
D324*
X005874Y008354D03*
X005874Y008355D03*
D325*
X005874Y008355D03*
X005874Y008356D03*
D326*
X005874Y008356D03*
X005874Y008357D03*
X005874Y008358D03*
X005221Y008396D03*
X005221Y008397D03*
X005221Y008398D03*
D327*
X005227Y008358D03*
X005227Y008357D03*
D328*
X005221Y008397D03*
X005874Y008357D03*
D329*
X005227Y008358D03*
D330*
X005221Y008398D03*
X005874Y008360D03*
X005874Y008358D03*
D331*
X005874Y008359D03*
X005874Y008359D03*
X005221Y008399D03*
X005221Y008399D03*
D332*
X005874Y008362D03*
X005874Y008361D03*
X005874Y008360D03*
D333*
X005227Y008361D03*
D334*
X005874Y008361D03*
D335*
X005227Y008362D03*
X005227Y008361D03*
D336*
X005221Y008402D03*
X005875Y008363D03*
X005875Y008362D03*
D337*
X005875Y008363D03*
X005875Y008364D03*
X005221Y008401D03*
X005221Y008402D03*
X005221Y008403D03*
D338*
X005875Y008366D03*
X005875Y008365D03*
X005875Y008364D03*
D339*
X005875Y008365D03*
X005875Y008366D03*
D340*
X005226Y008366D03*
D341*
X005226Y008366D03*
X005226Y008367D03*
D342*
X005220Y008405D03*
X005220Y008406D03*
X005875Y008368D03*
X005875Y008367D03*
D343*
X005875Y008367D03*
X005875Y008368D03*
X005220Y008405D03*
X005220Y008406D03*
D344*
X005220Y008407D03*
X005220Y008408D03*
X005875Y008370D03*
X005875Y008369D03*
X005875Y008369D03*
D345*
X005225Y008370D03*
X005225Y008369D03*
D346*
X005225Y008370D03*
D347*
X005220Y008407D03*
X005875Y008370D03*
D348*
X005876Y008371D03*
X005876Y008372D03*
D349*
X005876Y008372D03*
X005876Y008371D03*
D350*
X005876Y008373D03*
X005876Y008374D03*
X005876Y008374D03*
X005219Y008410D03*
X005219Y008411D03*
D351*
X005219Y008411D03*
X005219Y008410D03*
X005876Y008373D03*
D352*
X005225Y008374D03*
X005225Y008375D03*
D353*
X005225Y008375D03*
D354*
X005876Y008376D03*
X005876Y008375D03*
D355*
X005876Y008375D03*
X005876Y008376D03*
D356*
X005876Y008377D03*
X005876Y008378D03*
X005876Y008379D03*
X005219Y008414D03*
X005219Y008414D03*
D357*
X005219Y008415D03*
X005219Y008413D03*
X005876Y008378D03*
X005876Y008377D03*
D358*
X005224Y008378D03*
X005224Y008379D03*
D359*
X005224Y008378D03*
D360*
X005219Y008415D03*
X005219Y008416D03*
X005877Y008380D03*
X005877Y008379D03*
D361*
X005877Y008380D03*
X005877Y008381D03*
X005219Y008416D03*
D362*
X005877Y008383D03*
X005877Y008382D03*
X005877Y008381D03*
D363*
X005877Y008382D03*
D364*
X005224Y008383D03*
X005224Y008384D03*
D365*
X005224Y008383D03*
D366*
X005218Y008418D03*
X005218Y008420D03*
X005877Y008385D03*
X005877Y008383D03*
D367*
X005877Y008384D03*
X005877Y008384D03*
X005218Y008419D03*
X005218Y008419D03*
D368*
X005878Y008387D03*
X005878Y008386D03*
X005878Y008385D03*
D369*
X005878Y008386D03*
D370*
X005223Y008387D03*
X005223Y008386D03*
D371*
X005223Y008387D03*
D372*
X005218Y008422D03*
X005218Y008423D03*
X005878Y008388D03*
X005878Y008387D03*
D373*
X005878Y008388D03*
X005878Y008389D03*
X005218Y008422D03*
X005218Y008423D03*
D374*
X005218Y008424D03*
X005218Y008424D03*
X005878Y008391D03*
X005878Y008390D03*
X005878Y008389D03*
D375*
X005878Y008390D03*
X005878Y008391D03*
X005218Y008425D03*
D376*
X005222Y008392D03*
X005222Y008391D03*
D377*
X005878Y008392D03*
X005878Y008393D03*
D378*
X005222Y008392D03*
D379*
X005878Y008393D03*
X005878Y008392D03*
D380*
X005878Y008394D03*
X005878Y008394D03*
X005878Y008395D03*
X005217Y008427D03*
X005217Y008428D03*
D381*
X005222Y008396D03*
X005222Y008395D03*
D382*
X005217Y008427D03*
X005217Y008428D03*
X005878Y008395D03*
D383*
X005222Y008395D03*
D384*
X005879Y008396D03*
X005879Y008397D03*
D385*
X005879Y008397D03*
X005879Y008396D03*
D386*
X005879Y008398D03*
X005879Y008399D03*
X005879Y008399D03*
X005216Y008430D03*
X005216Y008431D03*
X005216Y008432D03*
D387*
X005216Y008431D03*
X005879Y008398D03*
D388*
X005221Y008400D03*
X005221Y008401D03*
D389*
X005216Y008432D03*
X005216Y008433D03*
X005879Y008401D03*
X005879Y008400D03*
D390*
X005221Y008400D03*
D391*
X005216Y008433D03*
X005879Y008401D03*
X005879Y008400D03*
D392*
X005879Y008402D03*
X005879Y008403D03*
X005879Y008404D03*
D393*
X005879Y008403D03*
X005879Y008402D03*
D394*
X005220Y008403D03*
D395*
X005220Y008404D03*
X005220Y008404D03*
D396*
X005216Y008435D03*
X005216Y008436D03*
X005216Y008437D03*
X005880Y008405D03*
X005880Y008404D03*
D397*
X005880Y008405D03*
X005880Y008406D03*
X005216Y008436D03*
D398*
X005880Y008408D03*
X005880Y008407D03*
X005880Y008406D03*
D399*
X005880Y008407D03*
D400*
X005220Y008408D03*
D401*
X005215Y008440D03*
X005880Y008410D03*
X005880Y008408D03*
D402*
X005220Y008409D03*
X005220Y008409D03*
D403*
X005215Y008439D03*
X005215Y008439D03*
X005215Y008440D03*
X005880Y008409D03*
X005880Y008409D03*
D404*
X005880Y008410D03*
X005880Y008411D03*
X005880Y008412D03*
X005215Y008441D03*
X005215Y008442D03*
D405*
X005215Y008441D03*
X005880Y008411D03*
D406*
X005219Y008412D03*
X005219Y008413D03*
D407*
X005219Y008412D03*
D408*
X005881Y008413D03*
X005881Y008412D03*
D409*
X005881Y008413D03*
X005881Y008414D03*
D410*
X005881Y008414D03*
X005881Y008415D03*
X005881Y008416D03*
X005214Y008444D03*
X005214Y008444D03*
X005214Y008445D03*
D411*
X005214Y008445D03*
X005881Y008416D03*
X005881Y008415D03*
D412*
X005219Y008417D03*
X005219Y008418D03*
D413*
X005881Y008418D03*
X005881Y008417D03*
D414*
X005219Y008417D03*
D415*
X005881Y008417D03*
X005881Y008418D03*
D416*
X005881Y008419D03*
X005881Y008419D03*
X005881Y008420D03*
X005214Y008448D03*
X005214Y008449D03*
D417*
X005214Y008448D03*
X005214Y008447D03*
X005881Y008420D03*
D418*
X005218Y008421D03*
X005218Y008420D03*
D419*
X005218Y008421D03*
D420*
X005214Y008450D03*
X005882Y008422D03*
X005882Y008421D03*
D421*
X005882Y008421D03*
X005882Y008422D03*
X005214Y008449D03*
X005214Y008450D03*
D422*
X005882Y008424D03*
X005882Y008424D03*
X005882Y008423D03*
D423*
X005882Y008423D03*
D424*
X005882Y008425D03*
X005882Y008426D03*
X005213Y008452D03*
X005213Y008453D03*
D425*
X005217Y008426D03*
X005217Y008425D03*
D426*
X005213Y008453D03*
X005213Y008454D03*
X005882Y008426D03*
X005882Y008425D03*
D427*
X005217Y008426D03*
D428*
X005883Y008427D03*
X005883Y008428D03*
X005883Y008429D03*
D429*
X005883Y008428D03*
X005883Y008427D03*
D430*
X005217Y008429D03*
X005217Y008429D03*
D431*
X005213Y008456D03*
X005213Y008457D03*
X005883Y008430D03*
X005883Y008429D03*
D432*
X005217Y008430D03*
D433*
X005213Y008456D03*
X005213Y008457D03*
X005883Y008431D03*
X005883Y008430D03*
D434*
X005883Y008431D03*
X005883Y008432D03*
X005883Y008433D03*
X005213Y008458D03*
X005213Y008459D03*
D435*
X005213Y008458D03*
X005883Y008432D03*
D436*
X005883Y008433D03*
X005883Y008435D03*
D437*
X005216Y008434D03*
X005216Y008434D03*
D438*
X005883Y008434D03*
X005883Y008434D03*
D439*
X005216Y008435D03*
D440*
X005212Y008461D03*
X005212Y008462D03*
X005883Y008437D03*
X005883Y008436D03*
X005883Y008435D03*
D441*
X005883Y008436D03*
X005212Y008461D03*
X005212Y008462D03*
D442*
X005215Y008438D03*
X005215Y008437D03*
D443*
X005884Y008438D03*
X005884Y008437D03*
D444*
X005215Y008438D03*
D445*
X005884Y008439D03*
X005884Y008438D03*
D446*
X005884Y008439D03*
X005884Y008440D03*
X005884Y008441D03*
X005211Y008464D03*
X005211Y008465D03*
D447*
X005211Y008465D03*
X005211Y008466D03*
X005884Y008441D03*
X005884Y008440D03*
D448*
X005884Y008442D03*
X005884Y008443D03*
X005211Y008466D03*
X005211Y008467D03*
D449*
X005215Y008443D03*
X005215Y008442D03*
D450*
X005211Y008467D03*
X005884Y008443D03*
X005884Y008442D03*
D451*
X005215Y008443D03*
D452*
X005884Y008444D03*
X005884Y008444D03*
X005884Y008445D03*
D453*
X005884Y008445D03*
D454*
X005214Y008446D03*
D455*
X005211Y008470D03*
X005211Y008471D03*
X005885Y008447D03*
X005885Y008446D03*
D456*
X005214Y008447D03*
X005214Y008446D03*
D457*
X005211Y008469D03*
X005211Y008470D03*
X005885Y008447D03*
X005885Y008446D03*
D458*
X005885Y008448D03*
X005885Y008449D03*
X005885Y008449D03*
D459*
X005885Y008448D03*
D460*
X005885Y008450D03*
X005885Y008451D03*
X005210Y008473D03*
D461*
X005210Y008473D03*
X005210Y008474D03*
X005210Y008474D03*
X005885Y008451D03*
X005885Y008450D03*
D462*
X005214Y008451D03*
D463*
X005214Y008451D03*
X005214Y008452D03*
D464*
X005210Y008475D03*
X005885Y008454D03*
X005885Y008453D03*
X005885Y008452D03*
D465*
X005885Y008452D03*
X005885Y008453D03*
X005210Y008475D03*
X005210Y008476D03*
D466*
X005213Y008455D03*
X005213Y008454D03*
D467*
X005886Y008455D03*
X005886Y008454D03*
D468*
X005213Y008455D03*
D469*
X005886Y008456D03*
X005886Y008455D03*
D470*
X005886Y008456D03*
X005886Y008457D03*
X005886Y008458D03*
X005209Y008478D03*
X005209Y008479D03*
X005209Y008479D03*
D471*
X005209Y008478D03*
X005886Y008457D03*
D472*
X005886Y008458D03*
X005886Y008460D03*
D473*
X005886Y008459D03*
X005886Y008459D03*
D474*
X005212Y008460D03*
X005212Y008459D03*
D475*
X005212Y008460D03*
D476*
X005209Y008481D03*
X005209Y008482D03*
X005209Y008483D03*
X005886Y008462D03*
X005886Y008461D03*
X005886Y008460D03*
D477*
X005886Y008461D03*
X005209Y008482D03*
D478*
X005209Y008483D03*
X005887Y008463D03*
X005887Y008462D03*
D479*
X005212Y008463D03*
X005212Y008464D03*
D480*
X005209Y008484D03*
X005209Y008484D03*
X005887Y008464D03*
X005887Y008463D03*
D481*
X005212Y008463D03*
D482*
X005887Y008464D03*
X005887Y008465D03*
X005887Y008466D03*
D483*
X005887Y008466D03*
X005887Y008465D03*
D484*
X005887Y008467D03*
X005887Y008468D03*
X005208Y008486D03*
X005208Y008487D03*
X005208Y008488D03*
D485*
X005208Y008487D03*
X005887Y008468D03*
X005887Y008467D03*
D486*
X005211Y008468D03*
X005211Y008469D03*
D487*
X005211Y008468D03*
D488*
X005888Y008469D03*
X005888Y008469D03*
X005888Y008470D03*
D489*
X005888Y008470D03*
D490*
X005888Y008471D03*
X005888Y008472D03*
X005208Y008490D03*
X005208Y008491D03*
D491*
X005210Y008472D03*
X005210Y008471D03*
D492*
X005208Y008490D03*
X005208Y008491D03*
X005888Y008472D03*
X005888Y008471D03*
D493*
X005210Y008472D03*
D494*
X005208Y008492D03*
X005208Y008493D03*
X005888Y008474D03*
X005888Y008474D03*
X005888Y008473D03*
D495*
X005888Y008473D03*
X005208Y008492D03*
D496*
X005888Y008476D03*
X005888Y008475D03*
D497*
X005888Y008475D03*
X005888Y008476D03*
D498*
X005210Y008477D03*
X005210Y008476D03*
D499*
X005207Y008495D03*
X005207Y008496D03*
X005888Y008479D03*
X005888Y008478D03*
X005888Y008477D03*
D500*
X005210Y008477D03*
D501*
X005207Y008495D03*
X005207Y008496D03*
X005888Y008478D03*
X005888Y008477D03*
D502*
X005889Y008479D03*
X005889Y008480D03*
D503*
X005209Y008481D03*
X005209Y008480D03*
D504*
X005889Y008481D03*
X005889Y008480D03*
D505*
X005209Y008480D03*
D506*
X005206Y008499D03*
X005206Y008499D03*
X005889Y008483D03*
X005889Y008482D03*
X005889Y008481D03*
D507*
X005889Y008482D03*
X005206Y008498D03*
X005206Y008500D03*
D508*
X005206Y008501D03*
X005889Y008485D03*
X005889Y008483D03*
D509*
X005889Y008484D03*
X005889Y008484D03*
X005206Y008500D03*
X005206Y008501D03*
D510*
X005209Y008486D03*
X005209Y008485D03*
D511*
X005209Y008485D03*
D512*
X005889Y008486D03*
X005889Y008487D03*
X005889Y008485D03*
D513*
X005889Y008486D03*
D514*
X005890Y008487D03*
X005890Y008488D03*
X005206Y008503D03*
X005206Y008505D03*
D515*
X005206Y008504D03*
X005206Y008504D03*
X005890Y008489D03*
X005890Y008488D03*
D516*
X005208Y008488D03*
D517*
X005208Y008489D03*
X005208Y008489D03*
D518*
X005890Y008490D03*
X005890Y008489D03*
X005890Y008491D03*
D519*
X005890Y008491D03*
X005890Y008490D03*
D520*
X005890Y008492D03*
X005890Y008493D03*
X005205Y008507D03*
X005205Y008508D03*
D521*
X005205Y008508D03*
X005205Y008507D03*
X005890Y008493D03*
X005890Y008492D03*
D522*
X005207Y008493D03*
D523*
X005207Y008494D03*
X005207Y008494D03*
D524*
X005205Y008509D03*
X005205Y008509D03*
X005890Y008495D03*
X005890Y008494D03*
X005890Y008494D03*
D525*
X005890Y008495D03*
X005205Y008510D03*
D526*
X005891Y008497D03*
X005891Y008496D03*
D527*
X005891Y008496D03*
X005891Y008497D03*
D528*
X005207Y008498D03*
X005207Y008497D03*
D529*
X005207Y008497D03*
D530*
X005204Y008512D03*
X005204Y008513D03*
X005891Y008499D03*
X005891Y008499D03*
X005891Y008498D03*
D531*
X005891Y008498D03*
X005204Y008512D03*
X005204Y008513D03*
D532*
X005891Y008501D03*
X005891Y008500D03*
D533*
X005891Y008500D03*
X005891Y008501D03*
D534*
X005206Y008502D03*
X005206Y008503D03*
D535*
X005204Y008515D03*
X005204Y008516D03*
X005204Y008517D03*
X005891Y008504D03*
X005891Y008503D03*
X005891Y008502D03*
D536*
X005206Y008502D03*
D537*
X005204Y008516D03*
X005891Y008503D03*
X005891Y008502D03*
D538*
X005892Y008504D03*
X005892Y008505D03*
X005204Y008518D03*
D539*
X005204Y008518D03*
X005204Y008517D03*
X005892Y008506D03*
X005892Y008505D03*
D540*
X005205Y008506D03*
X005205Y008505D03*
D541*
X005205Y008506D03*
D542*
X005892Y008507D03*
X005892Y008508D03*
X005892Y008506D03*
D543*
X005892Y008507D03*
D544*
X005892Y008508D03*
X005892Y008510D03*
X005203Y008521D03*
D545*
X005203Y008521D03*
X005203Y008522D03*
X005203Y008520D03*
X005892Y008509D03*
X005892Y008509D03*
D546*
X005205Y008510D03*
X005205Y008511D03*
D547*
X005893Y008510D03*
X005893Y008511D03*
X005893Y008512D03*
D548*
X005205Y008511D03*
D549*
X005893Y008511D03*
D550*
X005893Y008512D03*
X005893Y008513D03*
X005203Y008525D03*
D551*
X005203Y008525D03*
X005203Y008524D03*
X005203Y008524D03*
X005893Y008514D03*
X005893Y008513D03*
D552*
X005204Y008514D03*
X005204Y008514D03*
D553*
X005203Y008526D03*
X005203Y008527D03*
X005893Y008516D03*
X005893Y008515D03*
X005893Y008514D03*
D554*
X005204Y008515D03*
D555*
X005203Y008526D03*
X005893Y008516D03*
X005893Y008515D03*
D556*
X005893Y008517D03*
X005893Y008518D03*
D557*
X005893Y008518D03*
X005893Y008517D03*
D558*
X005204Y008519D03*
X005204Y008519D03*
D559*
X005202Y008529D03*
X005202Y008529D03*
X005202Y008530D03*
X005893Y008520D03*
X005893Y008519D03*
X005893Y008519D03*
D560*
X005204Y008520D03*
D561*
X005202Y008530D03*
X005893Y008520D03*
D562*
X005894Y008521D03*
X005894Y008522D03*
D563*
X005894Y008522D03*
X005894Y008521D03*
D564*
X005203Y008522D03*
X005203Y008523D03*
D565*
X005203Y008523D03*
D566*
X005201Y008533D03*
X005201Y008534D03*
X005894Y008524D03*
X005894Y008524D03*
X005894Y008523D03*
D567*
X005894Y008523D03*
X005201Y008532D03*
X005201Y008533D03*
D568*
X005201Y008535D03*
X005894Y008526D03*
X005894Y008525D03*
D569*
X005894Y008525D03*
X005894Y008526D03*
X005201Y008534D03*
X005201Y008535D03*
D570*
X005894Y008529D03*
X005894Y008528D03*
X005894Y008527D03*
D571*
X005202Y008528D03*
X005202Y008527D03*
D572*
X005894Y008528D03*
X005894Y008527D03*
D573*
X005202Y008528D03*
D574*
X005201Y008538D03*
X005201Y008539D03*
X005895Y008530D03*
X005895Y008529D03*
D575*
X005895Y008530D03*
X005895Y008531D03*
X005201Y008537D03*
X005201Y008538D03*
D576*
X005202Y008531D03*
D577*
X005202Y008531D03*
X005202Y008532D03*
D578*
X005895Y008533D03*
X005895Y008532D03*
X005895Y008531D03*
D579*
X005895Y008532D03*
D580*
X005895Y008533D03*
X005895Y008535D03*
X005200Y008541D03*
X005200Y008542D03*
D581*
X005200Y008542D03*
X005200Y008541D03*
X005895Y008534D03*
X005895Y008534D03*
D582*
X005895Y008535D03*
X005895Y008536D03*
X005895Y008537D03*
X005200Y008543D03*
X005200Y008544D03*
D583*
X005201Y008536D03*
D584*
X005200Y008543D03*
X005895Y008536D03*
D585*
X005201Y008537D03*
X005201Y008536D03*
D586*
X005896Y008537D03*
X005896Y008538D03*
D587*
X005896Y008538D03*
X005896Y008539D03*
D588*
X005200Y008540D03*
X005200Y008539D03*
D589*
X005199Y008546D03*
X005199Y008547D03*
X005896Y008541D03*
X005896Y008540D03*
X005896Y008539D03*
D590*
X005200Y008540D03*
D591*
X005199Y008546D03*
X005199Y008547D03*
X005896Y008541D03*
X005896Y008540D03*
D592*
X005896Y008542D03*
X005896Y008543D03*
D593*
X005896Y008543D03*
X005896Y008542D03*
D594*
X005896Y008544D03*
X005896Y008544D03*
X005896Y008545D03*
X005199Y008549D03*
X005199Y008550D03*
D595*
X005200Y008545D03*
X005200Y008544D03*
D596*
X005200Y008545D03*
D597*
X005199Y008550D03*
X005199Y008551D03*
X005896Y008545D03*
D598*
X005897Y008546D03*
X005897Y008547D03*
X005199Y008552D03*
D599*
X005199Y008552D03*
X005199Y008551D03*
X005897Y008547D03*
X005897Y008546D03*
D600*
X005199Y008548D03*
X005199Y008549D03*
D601*
X005897Y008549D03*
X005897Y008549D03*
X005897Y008548D03*
D602*
X005199Y008548D03*
D603*
X005897Y008548D03*
D604*
X005897Y008550D03*
X005897Y008551D03*
X005198Y008555D03*
X005198Y008556D03*
D605*
X005198Y008555D03*
X005198Y008554D03*
X005897Y008551D03*
X005897Y008550D03*
D606*
X005898Y008552D03*
X005898Y008553D03*
X005898Y008554D03*
D607*
X005898Y008553D03*
X005898Y008552D03*
D608*
X005199Y008553D03*
X005199Y008554D03*
D609*
X005199Y008553D03*
D610*
X005198Y008558D03*
X005198Y008559D03*
X005198Y008559D03*
X005898Y008555D03*
X005898Y008554D03*
D611*
X005898Y008555D03*
X005898Y008556D03*
X005198Y008558D03*
D612*
X005198Y008557D03*
X005198Y008556D03*
D613*
X005198Y008560D03*
X005898Y008558D03*
X005898Y008557D03*
X005898Y008556D03*
D614*
X005198Y008557D03*
D615*
X005198Y008560D03*
X005198Y008561D03*
X005898Y008557D03*
D616*
X005898Y008558D03*
X005898Y008560D03*
D617*
X005898Y008559D03*
X005898Y008559D03*
D618*
X005898Y008560D03*
X005898Y008561D03*
X005898Y008562D03*
X005197Y008563D03*
X005197Y008564D03*
X005197Y008564D03*
D619*
X005197Y008563D03*
X005898Y008561D03*
D620*
X005197Y008562D03*
X005197Y008561D03*
D621*
X005197Y008562D03*
D622*
X005899Y008563D03*
X005899Y008562D03*
D623*
X005899Y008563D03*
X005899Y008564D03*
D624*
X005899Y008564D03*
X005899Y008565D03*
X005899Y008566D03*
X005196Y008567D03*
X005196Y008568D03*
X005196Y008566D03*
D625*
X005197Y008566D03*
X005197Y008565D03*
D626*
X005196Y008567D03*
X005899Y008566D03*
X005899Y008565D03*
D627*
X005197Y008565D03*
D628*
X005196Y008569D03*
X005196Y008569D03*
X005899Y008568D03*
X005899Y008567D03*
D629*
X005899Y008567D03*
X005899Y008568D03*
X005196Y008568D03*
D630*
X005899Y008569D03*
X005899Y008569D03*
X005899Y008570D03*
D631*
X005196Y008571D03*
X005196Y008570D03*
D632*
X005899Y008570D03*
D633*
X005196Y008570D03*
D634*
X005196Y008572D03*
X005900Y008572D03*
X005900Y008571D03*
D635*
X005900Y008571D03*
X005900Y008572D03*
X005196Y008573D03*
X005196Y008572D03*
X005196Y008571D03*
D636*
X005900Y008573D03*
X005900Y008574D03*
X005900Y008574D03*
D637*
X005195Y008573D03*
D638*
X005900Y008573D03*
D639*
X005195Y008574D03*
X005195Y008574D03*
D640*
X005195Y008575D03*
X005195Y008576D03*
X005900Y008576D03*
X005900Y008575D03*
D641*
X005900Y008575D03*
X005900Y008576D03*
X005195Y008576D03*
X005195Y008575D03*
D642*
X005195Y008577D03*
X005195Y008578D03*
X005900Y008579D03*
X005900Y008578D03*
X005900Y008577D03*
D643*
X005900Y008577D03*
X005900Y008578D03*
X005195Y008577D03*
D644*
X005195Y008578D03*
D645*
X005195Y008579D03*
X005195Y008579D03*
D646*
X005901Y008580D03*
X005901Y008579D03*
D647*
X005901Y008582D03*
X005194Y008581D03*
X005194Y008580D03*
D648*
X005901Y008581D03*
X005901Y008580D03*
D649*
X005901Y008581D03*
X005901Y008582D03*
X005901Y008583D03*
X005194Y008581D03*
X005194Y008580D03*
D650*
X005194Y008582D03*
X005194Y008583D03*
D651*
X005194Y008582D03*
D652*
X005194Y008583D03*
X005194Y008585D03*
X005901Y008586D03*
D653*
X005901Y008585D03*
X005901Y008583D03*
D654*
X005901Y008585D03*
X005901Y008586D03*
X005901Y008587D03*
X005194Y008584D03*
X005194Y008584D03*
D655*
X005901Y008584D03*
X005901Y008584D03*
D656*
X005902Y008588D03*
X005902Y008589D03*
X005194Y008586D03*
X005194Y008585D03*
D657*
X005194Y008586D03*
X005902Y008587D03*
X005902Y008588D03*
D658*
X005194Y008588D03*
X005194Y008587D03*
D659*
X005194Y008587D03*
D660*
X005193Y008588D03*
X005193Y008590D03*
X005902Y008592D03*
X005902Y008593D03*
D661*
X005902Y008593D03*
X005902Y008592D03*
X005193Y008589D03*
X005193Y008589D03*
D662*
X005902Y008590D03*
X005902Y008589D03*
X005902Y008591D03*
D663*
X005902Y008591D03*
X005902Y008590D03*
D664*
X005193Y008591D03*
X005193Y008590D03*
D665*
X005193Y008591D03*
D666*
X005193Y008592D03*
X005193Y008593D03*
X005903Y008596D03*
X005903Y008597D03*
D667*
X005903Y008597D03*
X005903Y008596D03*
X005193Y008593D03*
X005193Y008592D03*
D668*
X005193Y008594D03*
X005193Y008594D03*
X005903Y008598D03*
X005903Y008599D03*
X005903Y008599D03*
D669*
X005903Y008595D03*
X005903Y008594D03*
X005903Y008594D03*
D670*
X005903Y008598D03*
X005193Y008595D03*
D671*
X005903Y008595D03*
D672*
X005192Y008596D03*
X005192Y008595D03*
D673*
X005192Y008596D03*
D674*
X005192Y008597D03*
X005192Y008598D03*
X005903Y008602D03*
X005903Y008603D03*
X005903Y008604D03*
D675*
X005903Y008603D03*
X005903Y008602D03*
X005192Y008598D03*
X005192Y008597D03*
D676*
X005192Y008599D03*
X005192Y008599D03*
D677*
X005192Y008600D03*
D678*
X005903Y008601D03*
X005903Y008600D03*
D679*
X005904Y008606D03*
X005904Y008607D03*
X005904Y008608D03*
X005191Y008602D03*
X005191Y008601D03*
X005191Y008600D03*
D680*
X005903Y008601D03*
X005903Y008600D03*
D681*
X005904Y008607D03*
X005191Y008601D03*
D682*
X005191Y008602D03*
X005191Y008603D03*
X005904Y008608D03*
X005904Y008610D03*
D683*
X005904Y008609D03*
X005904Y008609D03*
X005191Y008603D03*
D684*
X005191Y008604D03*
X005191Y008604D03*
D685*
X005904Y008604D03*
X005904Y008605D03*
D686*
X005191Y008605D03*
D687*
X005904Y008606D03*
X005904Y008605D03*
D688*
X005905Y008613D03*
X005905Y008614D03*
X005191Y008607D03*
X005191Y008606D03*
X005191Y008605D03*
D689*
X005191Y008606D03*
X005905Y008612D03*
X005905Y008613D03*
D690*
X005190Y008608D03*
X005190Y008607D03*
D691*
X005190Y008608D03*
D692*
X005190Y008609D03*
X005190Y008609D03*
X005190Y008610D03*
X005905Y008617D03*
X005905Y008618D03*
D693*
X005905Y008618D03*
X005905Y008617D03*
X005190Y008610D03*
D694*
X005904Y008611D03*
X005904Y008612D03*
X005904Y008610D03*
D695*
X005905Y008620D03*
X005190Y008611D03*
D696*
X005904Y008611D03*
D697*
X005905Y008619D03*
X005905Y008619D03*
X005905Y008620D03*
X005190Y008612D03*
X005190Y008611D03*
D698*
X005190Y008612D03*
X005190Y008613D03*
D699*
X005190Y008613D03*
D700*
X005189Y008614D03*
X005189Y008614D03*
X005189Y008615D03*
X005906Y008623D03*
X005906Y008624D03*
X005906Y008624D03*
D701*
X005905Y008616D03*
X005905Y008615D03*
X005905Y008614D03*
D702*
X005906Y008623D03*
X005189Y008615D03*
D703*
X005905Y008616D03*
X005905Y008615D03*
D704*
X005189Y008616D03*
D705*
X005189Y008616D03*
X005189Y008617D03*
D706*
X005189Y008617D03*
X005189Y008618D03*
X005906Y008627D03*
D707*
X005906Y008627D03*
X005189Y008619D03*
X005189Y008618D03*
D708*
X005189Y008619D03*
X005189Y008620D03*
D709*
X005189Y008620D03*
D710*
X005189Y008621D03*
X005189Y008622D03*
D711*
X005906Y008622D03*
X005906Y008621D03*
D712*
X005189Y008622D03*
X005189Y008621D03*
D713*
X005906Y008622D03*
X005906Y008621D03*
D714*
X005188Y008623D03*
X005188Y008624D03*
D715*
X005188Y008623D03*
D716*
X005188Y008624D03*
X005188Y008625D03*
D717*
X005188Y008625D03*
D718*
X005906Y008626D03*
X005906Y008625D03*
D719*
X005906Y008625D03*
X005906Y008626D03*
D720*
X005188Y008627D03*
X005188Y008626D03*
D721*
X005188Y008626D03*
X005188Y008627D03*
D722*
X005244Y008628D03*
X005244Y008629D03*
X005244Y008629D03*
X005244Y008630D03*
X005244Y008631D03*
X005244Y008632D03*
X005244Y008633D03*
X005244Y008634D03*
X005244Y008634D03*
X005244Y008635D03*
X005244Y008636D03*
X005244Y008637D03*
X005244Y008638D03*
X005244Y008639D03*
X005244Y008639D03*
X005244Y008640D03*
X005244Y008641D03*
X005244Y008642D03*
X005244Y008643D03*
X005244Y008644D03*
X005244Y008644D03*
X005244Y008645D03*
X005244Y008646D03*
X005244Y008647D03*
X005244Y008648D03*
X005244Y008649D03*
X005244Y008649D03*
X005244Y008650D03*
X005244Y008651D03*
X005244Y008652D03*
X005244Y008653D03*
D723*
X005852Y008653D03*
X005852Y008652D03*
X005852Y008651D03*
X005852Y008650D03*
X005852Y008649D03*
X005852Y008649D03*
X005852Y008648D03*
X005852Y008647D03*
X005852Y008646D03*
X005852Y008645D03*
X005852Y008644D03*
X005852Y008644D03*
X005852Y008643D03*
X005852Y008642D03*
X005852Y008641D03*
X005852Y008640D03*
X005852Y008639D03*
X005852Y008639D03*
X005852Y008638D03*
X005852Y008637D03*
X005852Y008636D03*
X005852Y008635D03*
X005852Y008634D03*
X005852Y008634D03*
X005852Y008633D03*
X005852Y008632D03*
X005852Y008631D03*
X005852Y008630D03*
X005852Y008629D03*
X005852Y008629D03*
X005852Y008628D03*
D724*
X005244Y008628D03*
X005244Y008630D03*
X005244Y008631D03*
X005244Y008632D03*
X005244Y008633D03*
X005244Y008635D03*
X005244Y008636D03*
X005244Y008637D03*
X005244Y008638D03*
X005244Y008640D03*
X005244Y008641D03*
X005244Y008642D03*
X005244Y008643D03*
X005244Y008645D03*
X005244Y008646D03*
X005244Y008647D03*
X005244Y008648D03*
X005244Y008650D03*
X005244Y008651D03*
X005244Y008652D03*
X005244Y008653D03*
D725*
X005852Y008653D03*
X005852Y008652D03*
X005852Y008651D03*
X005852Y008650D03*
X005852Y008648D03*
X005852Y008647D03*
X005852Y008646D03*
X005852Y008645D03*
X005852Y008643D03*
X005852Y008642D03*
X005852Y008641D03*
X005852Y008640D03*
X005852Y008638D03*
X005852Y008637D03*
X005852Y008636D03*
X005852Y008635D03*
X005852Y008633D03*
X005852Y008632D03*
X005852Y008631D03*
X005852Y008630D03*
X005852Y008628D03*
D726*
X005548Y008654D03*
X005548Y008654D03*
X005548Y008655D03*
X005548Y008656D03*
X005548Y008657D03*
X005548Y008658D03*
X005548Y008659D03*
X005548Y008659D03*
X005548Y008660D03*
X005548Y008661D03*
X005548Y008662D03*
X005548Y008663D03*
X005548Y008664D03*
X005548Y008664D03*
X005548Y008665D03*
X005548Y008666D03*
X005548Y008667D03*
X005548Y008668D03*
X005548Y008669D03*
X005548Y008669D03*
X005548Y008670D03*
X005548Y008671D03*
X005548Y008672D03*
X005548Y008673D03*
X005548Y008674D03*
X005548Y008803D03*
X005548Y008804D03*
X005548Y008804D03*
X005548Y008805D03*
X005548Y008806D03*
X005548Y008807D03*
X005548Y008808D03*
X005548Y008809D03*
X005548Y008809D03*
X005548Y008810D03*
X005548Y008811D03*
X005548Y008812D03*
X005548Y008813D03*
X005548Y008814D03*
X005548Y008814D03*
X005548Y008815D03*
X005548Y008816D03*
X005548Y008817D03*
X005548Y008818D03*
X005548Y008819D03*
X005548Y008819D03*
X005548Y008820D03*
X005548Y008821D03*
X005548Y008822D03*
X005548Y008823D03*
X005548Y008824D03*
X005548Y008824D03*
X005548Y008825D03*
X005548Y008826D03*
X005548Y008827D03*
X005548Y008828D03*
X005548Y008829D03*
X005548Y008829D03*
X005548Y008830D03*
X005548Y008831D03*
X005548Y008832D03*
X005548Y008833D03*
X005548Y008834D03*
X005548Y008834D03*
X005548Y008835D03*
X005548Y008836D03*
X005548Y008837D03*
X005548Y008838D03*
X005548Y008839D03*
D727*
X005548Y008838D03*
X005548Y008837D03*
X005548Y008836D03*
X005548Y008835D03*
X005548Y008833D03*
X005548Y008832D03*
X005548Y008831D03*
X005548Y008830D03*
X005548Y008828D03*
X005548Y008827D03*
X005548Y008826D03*
X005548Y008825D03*
X005548Y008823D03*
X005548Y008822D03*
X005548Y008821D03*
X005548Y008820D03*
X005548Y008818D03*
X005548Y008817D03*
X005548Y008816D03*
X005548Y008815D03*
X005548Y008813D03*
X005548Y008812D03*
X005548Y008811D03*
X005548Y008810D03*
X005548Y008808D03*
X005548Y008807D03*
X005548Y008806D03*
X005548Y008805D03*
X005548Y008803D03*
X005548Y008673D03*
X005548Y008672D03*
X005548Y008671D03*
X005548Y008670D03*
X005548Y008668D03*
X005548Y008667D03*
X005548Y008666D03*
X005548Y008665D03*
X005548Y008663D03*
X005548Y008662D03*
X005548Y008661D03*
X005548Y008660D03*
X005548Y008658D03*
X005548Y008657D03*
X005548Y008656D03*
X005548Y008655D03*
D728*
X005274Y008674D03*
X005274Y008675D03*
X005274Y008676D03*
X005274Y008677D03*
X005274Y008678D03*
X005274Y008679D03*
X005274Y008679D03*
X005274Y008680D03*
X005274Y008681D03*
X005274Y008682D03*
X005274Y008683D03*
X005274Y008684D03*
X005274Y008684D03*
X005274Y008685D03*
X005274Y008686D03*
X005274Y008687D03*
X005274Y008688D03*
X005274Y008689D03*
X005274Y008689D03*
X005274Y008690D03*
X005274Y008691D03*
X005274Y008692D03*
X005274Y008693D03*
X005274Y008694D03*
X005274Y008694D03*
X005274Y008695D03*
X005274Y008696D03*
X005274Y008697D03*
X005274Y008698D03*
X005274Y008699D03*
X005274Y008699D03*
X005274Y008700D03*
X005274Y008701D03*
X005274Y008702D03*
X005274Y008703D03*
X005274Y008704D03*
X005274Y008704D03*
X005274Y008705D03*
X005274Y008706D03*
X005274Y008707D03*
X005274Y008708D03*
X005274Y008709D03*
X005274Y008709D03*
X005274Y008710D03*
X005274Y008711D03*
X005274Y008712D03*
X005274Y008713D03*
X005274Y008714D03*
X005274Y008714D03*
X005274Y008715D03*
X005274Y008716D03*
X005274Y008717D03*
X005274Y008718D03*
X005274Y008719D03*
X005274Y008719D03*
X005274Y008720D03*
X005274Y008721D03*
X005274Y008722D03*
X005274Y008723D03*
X005274Y008724D03*
X005274Y008724D03*
X005274Y008725D03*
X005274Y008726D03*
X005274Y008727D03*
X005274Y008728D03*
X005274Y008729D03*
X005274Y008729D03*
X005274Y008730D03*
X005274Y008731D03*
X005274Y008732D03*
X005274Y008733D03*
X005274Y008734D03*
X005274Y008734D03*
X005274Y008735D03*
X005274Y008736D03*
X005274Y008737D03*
X005274Y008738D03*
X005274Y008739D03*
X005274Y008739D03*
X005274Y008740D03*
X005274Y008741D03*
X005274Y008742D03*
X005274Y008743D03*
X005274Y008744D03*
X005274Y008744D03*
X005274Y008745D03*
X005274Y008746D03*
X005274Y008747D03*
X005274Y008748D03*
X005274Y008749D03*
X005274Y008749D03*
X005274Y008750D03*
X005274Y008751D03*
X005274Y008752D03*
X005274Y008753D03*
X005274Y008754D03*
X005274Y008754D03*
X005274Y008755D03*
X005274Y008756D03*
X005274Y008757D03*
X005274Y008758D03*
X005274Y008759D03*
X005274Y008759D03*
X005274Y008760D03*
X005274Y008761D03*
X005274Y008762D03*
X005274Y008763D03*
X005274Y008764D03*
X005274Y008764D03*
X005274Y008765D03*
X005274Y008766D03*
X005274Y008767D03*
X005274Y008768D03*
X005274Y008769D03*
X005274Y008769D03*
X005274Y008770D03*
X005274Y008771D03*
X005274Y008772D03*
X005274Y008773D03*
X005274Y008774D03*
X005274Y008774D03*
X005274Y008775D03*
X005274Y008776D03*
X005274Y008777D03*
X005274Y008778D03*
X005274Y008779D03*
X005274Y008779D03*
X005274Y008780D03*
X005274Y008781D03*
X005274Y008782D03*
X005274Y008783D03*
X005274Y008784D03*
X005274Y008784D03*
X005274Y008785D03*
X005274Y008786D03*
X005274Y008787D03*
X005274Y008788D03*
X005274Y008789D03*
X005274Y008789D03*
X005274Y008790D03*
X005274Y008791D03*
X005274Y008792D03*
X005274Y008793D03*
X005274Y008794D03*
X005274Y008794D03*
X005274Y008795D03*
X005274Y008796D03*
X005274Y008797D03*
X005274Y008798D03*
X005274Y008799D03*
X005274Y008799D03*
X005274Y008800D03*
X005274Y008801D03*
X005274Y008802D03*
D729*
X005829Y008802D03*
X005829Y008801D03*
X005829Y008800D03*
X005829Y008799D03*
X005829Y008799D03*
X005829Y008798D03*
X005829Y008797D03*
X005829Y008796D03*
X005829Y008795D03*
X005829Y008794D03*
X005829Y008794D03*
X005829Y008793D03*
X005829Y008792D03*
X005829Y008791D03*
X005829Y008790D03*
X005829Y008789D03*
X005829Y008789D03*
X005829Y008788D03*
X005829Y008787D03*
X005829Y008786D03*
X005829Y008785D03*
X005829Y008784D03*
X005829Y008784D03*
X005829Y008783D03*
X005829Y008782D03*
X005829Y008781D03*
X005829Y008780D03*
X005829Y008779D03*
X005829Y008779D03*
X005829Y008778D03*
X005829Y008777D03*
X005829Y008776D03*
X005829Y008775D03*
X005829Y008774D03*
X005829Y008774D03*
X005829Y008773D03*
X005829Y008772D03*
X005829Y008771D03*
X005829Y008770D03*
X005829Y008769D03*
X005829Y008769D03*
X005829Y008768D03*
X005829Y008767D03*
X005829Y008766D03*
X005829Y008765D03*
X005829Y008764D03*
X005829Y008764D03*
X005829Y008763D03*
X005829Y008762D03*
X005829Y008761D03*
X005829Y008760D03*
X005829Y008759D03*
X005829Y008759D03*
X005829Y008758D03*
X005829Y008757D03*
X005829Y008756D03*
X005829Y008755D03*
X005829Y008754D03*
X005829Y008754D03*
X005829Y008753D03*
X005829Y008752D03*
X005829Y008751D03*
X005829Y008750D03*
X005829Y008749D03*
X005829Y008749D03*
X005829Y008748D03*
X005829Y008747D03*
X005829Y008746D03*
X005829Y008745D03*
X005829Y008744D03*
X005829Y008744D03*
X005829Y008743D03*
X005829Y008742D03*
X005829Y008741D03*
X005829Y008740D03*
X005829Y008739D03*
X005829Y008739D03*
X005829Y008738D03*
X005829Y008737D03*
X005829Y008736D03*
X005829Y008735D03*
X005829Y008734D03*
X005829Y008734D03*
X005829Y008733D03*
X005829Y008732D03*
X005829Y008731D03*
X005829Y008730D03*
X005829Y008729D03*
X005829Y008729D03*
X005829Y008728D03*
X005829Y008727D03*
X005829Y008726D03*
X005829Y008725D03*
X005829Y008724D03*
X005829Y008724D03*
X005829Y008723D03*
X005829Y008722D03*
X005829Y008721D03*
X005829Y008720D03*
X005829Y008719D03*
X005829Y008719D03*
X005829Y008718D03*
X005829Y008717D03*
X005829Y008716D03*
X005829Y008715D03*
X005829Y008714D03*
X005829Y008714D03*
X005829Y008713D03*
X005829Y008712D03*
X005829Y008711D03*
X005829Y008710D03*
X005829Y008709D03*
X005829Y008709D03*
X005829Y008708D03*
X005829Y008707D03*
X005829Y008706D03*
X005829Y008705D03*
X005829Y008704D03*
X005829Y008704D03*
X005829Y008703D03*
X005829Y008702D03*
X005829Y008701D03*
X005829Y008700D03*
X005829Y008699D03*
X005829Y008699D03*
X005829Y008698D03*
X005829Y008697D03*
X005829Y008696D03*
X005829Y008695D03*
X005829Y008694D03*
X005829Y008694D03*
X005829Y008693D03*
X005829Y008692D03*
X005829Y008691D03*
X005829Y008690D03*
X005829Y008689D03*
X005829Y008689D03*
X005829Y008688D03*
X005829Y008687D03*
X005829Y008686D03*
X005829Y008685D03*
X005829Y008684D03*
X005829Y008684D03*
X005829Y008683D03*
X005829Y008682D03*
X005829Y008681D03*
X005829Y008680D03*
X005829Y008679D03*
X005829Y008679D03*
X005829Y008678D03*
X005829Y008677D03*
X005829Y008676D03*
X005829Y008675D03*
X005829Y008674D03*
D730*
X005274Y008675D03*
X005274Y008676D03*
X005274Y008677D03*
X005274Y008678D03*
X005274Y008680D03*
X005274Y008681D03*
X005274Y008682D03*
X005274Y008683D03*
X005274Y008685D03*
X005274Y008686D03*
X005274Y008687D03*
X005274Y008688D03*
X005274Y008690D03*
X005274Y008691D03*
X005274Y008692D03*
X005274Y008693D03*
X005274Y008695D03*
X005274Y008696D03*
X005274Y008697D03*
X005274Y008698D03*
X005274Y008700D03*
X005274Y008701D03*
X005274Y008702D03*
X005274Y008703D03*
X005274Y008705D03*
X005274Y008706D03*
X005274Y008707D03*
X005274Y008708D03*
X005274Y008710D03*
X005274Y008711D03*
X005274Y008712D03*
X005274Y008713D03*
X005274Y008715D03*
X005274Y008716D03*
X005274Y008717D03*
X005274Y008718D03*
X005274Y008720D03*
X005274Y008721D03*
X005274Y008722D03*
X005274Y008723D03*
X005274Y008725D03*
X005274Y008726D03*
X005274Y008727D03*
X005274Y008728D03*
X005274Y008730D03*
X005274Y008731D03*
X005274Y008732D03*
X005274Y008733D03*
X005274Y008735D03*
X005274Y008736D03*
X005274Y008737D03*
X005274Y008738D03*
X005274Y008740D03*
X005274Y008741D03*
X005274Y008742D03*
X005274Y008743D03*
X005274Y008745D03*
X005274Y008746D03*
X005274Y008747D03*
X005274Y008748D03*
X005274Y008750D03*
X005274Y008751D03*
X005274Y008752D03*
X005274Y008753D03*
X005274Y008755D03*
X005274Y008756D03*
X005274Y008757D03*
X005274Y008758D03*
X005274Y008760D03*
X005274Y008761D03*
X005274Y008762D03*
X005274Y008763D03*
X005274Y008765D03*
X005274Y008766D03*
X005274Y008767D03*
X005274Y008768D03*
X005274Y008770D03*
X005274Y008771D03*
X005274Y008772D03*
X005274Y008773D03*
X005274Y008775D03*
X005274Y008776D03*
X005274Y008777D03*
X005274Y008778D03*
X005274Y008780D03*
X005274Y008781D03*
X005274Y008782D03*
X005274Y008783D03*
X005274Y008785D03*
X005274Y008786D03*
X005274Y008787D03*
X005274Y008788D03*
X005274Y008790D03*
X005274Y008791D03*
X005274Y008792D03*
X005274Y008793D03*
X005274Y008795D03*
X005274Y008796D03*
X005274Y008797D03*
X005274Y008798D03*
X005274Y008800D03*
X005274Y008801D03*
X005274Y008802D03*
D731*
X005829Y008802D03*
X005829Y008801D03*
X005829Y008800D03*
X005829Y008798D03*
X005829Y008797D03*
X005829Y008796D03*
X005829Y008795D03*
X005829Y008793D03*
X005829Y008792D03*
X005829Y008791D03*
X005829Y008790D03*
X005829Y008788D03*
X005829Y008787D03*
X005829Y008786D03*
X005829Y008785D03*
X005829Y008783D03*
X005829Y008782D03*
X005829Y008781D03*
X005829Y008780D03*
X005829Y008778D03*
X005829Y008777D03*
X005829Y008776D03*
X005829Y008775D03*
X005829Y008773D03*
X005829Y008772D03*
X005829Y008771D03*
X005829Y008770D03*
X005829Y008768D03*
X005829Y008767D03*
X005829Y008766D03*
X005829Y008765D03*
X005829Y008763D03*
X005829Y008762D03*
X005829Y008761D03*
X005829Y008760D03*
X005829Y008758D03*
X005829Y008757D03*
X005829Y008756D03*
X005829Y008755D03*
X005829Y008753D03*
X005829Y008752D03*
X005829Y008751D03*
X005829Y008750D03*
X005829Y008748D03*
X005829Y008747D03*
X005829Y008746D03*
X005829Y008745D03*
X005829Y008743D03*
X005829Y008742D03*
X005829Y008741D03*
X005829Y008740D03*
X005829Y008738D03*
X005829Y008737D03*
X005829Y008736D03*
X005829Y008735D03*
X005829Y008733D03*
X005829Y008732D03*
X005829Y008731D03*
X005829Y008730D03*
X005829Y008728D03*
X005829Y008727D03*
X005829Y008726D03*
X005829Y008725D03*
X005829Y008723D03*
X005829Y008722D03*
X005829Y008721D03*
X005829Y008720D03*
X005829Y008718D03*
X005829Y008717D03*
X005829Y008716D03*
X005829Y008715D03*
X005829Y008713D03*
X005829Y008712D03*
X005829Y008711D03*
X005829Y008710D03*
X005829Y008708D03*
X005829Y008707D03*
X005829Y008706D03*
X005829Y008705D03*
X005829Y008703D03*
X005829Y008702D03*
X005829Y008701D03*
X005829Y008700D03*
X005829Y008698D03*
X005829Y008697D03*
X005829Y008696D03*
X005829Y008695D03*
X005829Y008693D03*
X005829Y008692D03*
X005829Y008691D03*
X005829Y008690D03*
X005829Y008688D03*
X005829Y008687D03*
X005829Y008686D03*
X005829Y008685D03*
X005829Y008683D03*
X005829Y008682D03*
X005829Y008681D03*
X005829Y008680D03*
X005829Y008678D03*
X005829Y008677D03*
X005829Y008676D03*
X005829Y008675D03*
D732*
X005548Y008839D03*
D733*
X005548Y008840D03*
D734*
X005548Y008840D03*
X005548Y008841D03*
X005548Y008842D03*
X005548Y008843D03*
D735*
X005548Y008843D03*
X005548Y008842D03*
X005548Y008841D03*
D736*
X005548Y008844D03*
D737*
X005548Y008844D03*
X005548Y008845D03*
X005548Y008846D03*
D738*
X005548Y008846D03*
X005548Y008845D03*
D739*
X005548Y008847D03*
D740*
X005548Y008847D03*
D741*
X005548Y008848D03*
X005548Y008849D03*
X005548Y008849D03*
D742*
X005548Y008848D03*
D743*
X005548Y008850D03*
D744*
X005548Y008850D03*
D745*
X005548Y008851D03*
D746*
X005548Y008851D03*
X005548Y008852D03*
D747*
X005548Y008852D03*
D748*
X005548Y008853D03*
D749*
X005548Y008853D03*
D750*
X005548Y008854D03*
X005548Y008854D03*
D751*
X005548Y008855D03*
D752*
X005548Y008855D03*
D753*
X005548Y008856D03*
D754*
X005548Y008856D03*
X005548Y008857D03*
D755*
X005548Y008857D03*
D756*
X005548Y008858D03*
X005548Y008859D03*
X005548Y008859D03*
D757*
X005548Y008858D03*
D758*
X005548Y008860D03*
X005548Y008861D03*
D759*
X005548Y008861D03*
X005548Y008860D03*
D760*
X005548Y008862D03*
X005548Y008863D03*
D761*
X005548Y008863D03*
X005548Y008862D03*
D762*
X005548Y008864D03*
X005548Y008864D03*
X005548Y008865D03*
D763*
X005548Y008865D03*
D764*
X005548Y008866D03*
X005548Y008867D03*
D765*
X005548Y008867D03*
X005548Y008866D03*
D766*
X005548Y008868D03*
X005548Y008869D03*
D767*
X005548Y008868D03*
D768*
X005548Y008869D03*
D769*
X005548Y008870D03*
D770*
X005548Y008870D03*
D771*
X005548Y008871D03*
D772*
X005548Y008871D03*
X005548Y008872D03*
D773*
X005548Y008872D03*
D774*
X005548Y008873D03*
D775*
X005548Y008873D03*
D776*
X005548Y008874D03*
D777*
X005548Y008874D03*
D778*
X005548Y008875D03*
D779*
X005548Y008875D03*
D780*
X005548Y008876D03*
D781*
X005548Y008876D03*
X005548Y008877D03*
D782*
X005548Y008877D03*
D783*
X005548Y008878D03*
D784*
X005548Y008878D03*
D785*
X005548Y008879D03*
X005548Y008879D03*
D786*
X005548Y008880D03*
D787*
X005548Y008880D03*
D788*
X005548Y008881D03*
D789*
X005548Y008881D03*
D790*
X005548Y008882D03*
D791*
X005548Y008882D03*
D792*
X005548Y008883D03*
D793*
X005548Y008883D03*
D794*
X005548Y008884D03*
D795*
X005548Y008884D03*
D796*
X005548Y008885D03*
D797*
X005548Y008885D03*
D798*
X005548Y008886D03*
D799*
X005548Y008886D03*
D800*
X005548Y008887D03*
D801*
X005548Y008887D03*
D802*
X005548Y008888D03*
D803*
X005548Y008888D03*
D804*
X005548Y008889D03*
D805*
X005548Y008889D03*
D806*
X005548Y008890D03*
D807*
X005548Y008890D03*
D808*
X005548Y008891D03*
D809*
X005548Y008891D03*
D810*
X005548Y008892D03*
D811*
X005548Y008892D03*
D812*
X005548Y008893D03*
D813*
X005548Y008893D03*
D814*
X005548Y008894D03*
D815*
X005548Y008894D03*
D816*
X005548Y008895D03*
D817*
X005548Y008895D03*
D818*
X005548Y008896D03*
D819*
X005548Y008896D03*
D820*
X005548Y008897D03*
D821*
X005548Y008897D03*
D822*
X005548Y008898D03*
D823*
X005548Y008898D03*
D824*
X005548Y008899D03*
D825*
X005548Y008899D03*
D826*
X005548Y008900D03*
D827*
X005548Y008900D03*
D828*
X005548Y008901D03*
D829*
X005548Y008901D03*
D830*
X005548Y008902D03*
D831*
X005548Y008902D03*
D832*
X005548Y008903D03*
D833*
X005548Y008903D03*
D834*
X005548Y008904D03*
D835*
X005548Y008904D03*
D836*
X005548Y008905D03*
D837*
X005548Y008905D03*
D838*
X005548Y008906D03*
D839*
X005548Y008906D03*
D840*
X005548Y008907D03*
D841*
X005548Y008907D03*
D842*
X005548Y008908D03*
D843*
X005548Y008908D03*
D844*
X005548Y008909D03*
D845*
X005548Y008909D03*
D846*
X005548Y008910D03*
D847*
X005548Y008910D03*
D848*
X005548Y008911D03*
D849*
X005548Y008911D03*
D850*
X005548Y008912D03*
D851*
X005548Y008912D03*
D852*
X005548Y008913D03*
D853*
X005548Y008913D03*
D854*
X005548Y008914D03*
D855*
X005548Y008914D03*
D856*
X005548Y008915D03*
D857*
X005548Y008915D03*
D858*
X005548Y008916D03*
D859*
X005548Y008916D03*
D860*
X005548Y008917D03*
D861*
X005548Y008917D03*
D862*
X005548Y008918D03*
D863*
X005548Y008918D03*
D864*
X005548Y008919D03*
D865*
X005548Y008919D03*
D866*
X005548Y008920D03*
D867*
X005548Y008920D03*
D868*
X005548Y008921D03*
D869*
X005548Y008921D03*
D870*
X005548Y008922D03*
D871*
X005548Y008922D03*
D872*
X005548Y008923D03*
D873*
X005548Y008923D03*
D874*
X005548Y008924D03*
D875*
X005548Y008924D03*
D876*
X005548Y008925D03*
D877*
X005548Y008925D03*
D878*
X005548Y008926D03*
D879*
X005548Y008926D03*
D880*
X005548Y008927D03*
D881*
X005548Y008927D03*
D882*
X005548Y008928D03*
D883*
X005548Y008928D03*
D884*
X005548Y008929D03*
D885*
X005548Y008929D03*
D886*
X005548Y008930D03*
D887*
X005548Y008930D03*
D888*
X005548Y008931D03*
D889*
X005548Y008931D03*
D890*
X005548Y008932D03*
D891*
X005548Y008932D03*
D892*
X005548Y008933D03*
D893*
X005548Y008933D03*
D894*
X005548Y008934D03*
D895*
X005548Y008934D03*
D896*
X005548Y008935D03*
D897*
X005548Y008935D03*
D898*
X005548Y008936D03*
D899*
X005548Y008936D03*
D900*
X005548Y008937D03*
D901*
X005548Y008937D03*
D902*
X005548Y008938D03*
D903*
X005548Y008938D03*
D904*
X005548Y008939D03*
D905*
X005548Y008939D03*
D906*
X005548Y008940D03*
D907*
X005548Y008940D03*
D908*
X005548Y008941D03*
D909*
X005548Y008941D03*
D910*
X005548Y008942D03*
D911*
X005548Y008942D03*
D912*
X005548Y008943D03*
D913*
X005548Y008943D03*
D914*
X005548Y008944D03*
D915*
X005548Y008944D03*
D916*
X005548Y008945D03*
D917*
X005548Y008945D03*
D918*
X005548Y008946D03*
D919*
X005548Y008946D03*
D920*
X005548Y008947D03*
D921*
X005548Y008947D03*
D922*
X005548Y008948D03*
D923*
X005548Y008948D03*
D924*
X005548Y008949D03*
D925*
X005548Y008949D03*
D926*
X005548Y008950D03*
D927*
X005548Y008950D03*
D928*
X005548Y008951D03*
D929*
X005548Y008951D03*
D930*
X005548Y008952D03*
D931*
X005548Y008952D03*
D932*
X005548Y008953D03*
D933*
X005548Y008953D03*
D934*
X005548Y008954D03*
D935*
X005548Y008954D03*
D936*
X005548Y008955D03*
D937*
X005548Y008955D03*
D938*
X005548Y008956D03*
D939*
X005548Y008956D03*
D940*
X005548Y008957D03*
D941*
X005548Y008957D03*
D942*
X005548Y008958D03*
D943*
X005548Y008958D03*
D944*
X005548Y008959D03*
D945*
X005548Y008959D03*
D946*
X005548Y008960D03*
D947*
X005548Y008960D03*
D948*
X005548Y008961D03*
D949*
X005548Y008961D03*
D950*
X005548Y008962D03*
D951*
X005548Y008962D03*
D952*
X005548Y008963D03*
D953*
X005548Y008963D03*
D954*
X005548Y008964D03*
D955*
X005548Y008964D03*
D956*
X005548Y008965D03*
D957*
X005548Y008965D03*
D958*
X005548Y008966D03*
D959*
X005548Y008966D03*
D960*
X005548Y008967D03*
D961*
X005548Y008967D03*
D962*
X005548Y008968D03*
D963*
X005548Y008968D03*
D964*
X005548Y008969D03*
D965*
X005548Y008969D03*
D966*
X005548Y008970D03*
D967*
X005548Y008970D03*
D968*
X005548Y008971D03*
D969*
X005548Y008971D03*
D970*
X005548Y008972D03*
D971*
X005548Y008972D03*
D972*
X005548Y008973D03*
D973*
X005548Y008973D03*
D974*
X005548Y008974D03*
D975*
X005548Y008974D03*
D976*
X005548Y008975D03*
D977*
X005548Y008975D03*
D978*
X005548Y008976D03*
D979*
X005548Y008976D03*
D980*
X005548Y008977D03*
D981*
X005548Y008977D03*
D982*
X005548Y008978D03*
D983*
X005548Y008978D03*
D984*
X005548Y008979D03*
D985*
X005548Y008979D03*
D986*
X005548Y008980D03*
D987*
X005548Y008980D03*
D988*
X005548Y008981D03*
D989*
X005548Y008981D03*
D990*
X005548Y008982D03*
D991*
X005548Y008982D03*
D992*
X005548Y008983D03*
D993*
X005548Y008983D03*
D994*
X005548Y008984D03*
D995*
X005548Y008984D03*
D996*
X005548Y008985D03*
D997*
X005548Y008985D03*
D998*
X005548Y008986D03*
D999*
X005548Y008986D03*
D1000*
X005548Y008987D03*
D1001*
X005548Y008987D03*
D1002*
X005548Y008988D03*
D1003*
X005548Y008988D03*
D1004*
X005548Y008989D03*
D1005*
X005548Y008989D03*
D1006*
X005548Y008990D03*
D1007*
X005548Y008990D03*
D1008*
X005548Y008991D03*
D1009*
X005548Y008991D03*
D1010*
X005548Y008992D03*
D1011*
X005548Y008992D03*
D1012*
X005548Y008993D03*
D1013*
X005548Y008993D03*
D1014*
X005548Y008994D03*
D1015*
X005548Y008994D03*
D1016*
X005548Y008995D03*
D1017*
X005548Y008995D03*
D1018*
X005548Y008996D03*
D1019*
X005548Y008996D03*
D1020*
X005548Y008997D03*
D1021*
X005548Y008997D03*
D1022*
X005548Y008998D03*
D1023*
X005548Y008998D03*
D1024*
X005548Y008999D03*
D1025*
X005548Y008999D03*
D1026*
X005548Y009000D03*
D1027*
X005548Y009000D03*
D1028*
X005548Y009001D03*
D1029*
X005548Y009001D03*
D1030*
X005548Y009002D03*
D1031*
X005548Y009002D03*
D1032*
X005548Y009003D03*
D1033*
X005548Y009003D03*
D1034*
X005548Y009004D03*
D1035*
X005548Y009004D03*
D1036*
X005548Y009005D03*
D1037*
X005548Y009005D03*
D1038*
X005548Y009006D03*
D1039*
X005548Y009006D03*
D1040*
X005548Y009007D03*
D1041*
X005548Y009007D03*
D1042*
X005548Y009008D03*
D1043*
X005548Y009008D03*
D1044*
X005548Y009009D03*
D1045*
X005548Y009009D03*
D1046*
X005548Y009010D03*
D1047*
X005548Y009010D03*
D1048*
X005548Y009011D03*
D1049*
X005548Y009011D03*
D1050*
X005548Y009012D03*
D1051*
X005548Y009012D03*
D1052*
X005548Y009013D03*
D1053*
X005548Y009013D03*
D1054*
X005548Y009014D03*
D1055*
X005548Y009014D03*
D1056*
X005548Y009015D03*
D1057*
X005548Y009015D03*
D1058*
X005548Y009016D03*
D1059*
X005548Y009016D03*
D1060*
X005548Y009017D03*
D1061*
X005548Y009017D03*
D1062*
X005548Y009018D03*
D1063*
X005548Y009018D03*
D1064*
X005548Y009019D03*
D1065*
X005548Y009019D03*
D1066*
X005548Y009020D03*
D1067*
X005548Y009020D03*
D1068*
X005548Y009021D03*
D1069*
X005548Y009021D03*
D1070*
X005548Y009022D03*
D1071*
X005548Y009022D03*
D1072*
X005548Y009023D03*
D1073*
X005548Y009023D03*
D1074*
X005548Y009024D03*
D1075*
X005548Y009024D03*
D1076*
X005547Y009025D03*
D1077*
X005547Y009025D03*
D1078*
X005547Y009026D03*
D1079*
X005547Y009026D03*
D1080*
X005547Y009027D03*
D1081*
X005547Y009027D03*
D1082*
X005547Y009028D03*
D1083*
X005547Y009028D03*
D1084*
X005547Y009029D03*
D1085*
X005547Y009029D03*
D1086*
X005044Y007976D02*
X005045Y007976D01*
X005045Y007975D01*
X005044Y007975D01*
X005044Y007975D01*
X005044Y007976D01*
X005044Y007976D01*
X005044Y007975D01*
X005043Y007976D02*
X005044Y007976D01*
X005043Y007976D02*
X005043Y007976D01*
X005043Y007976D01*
X005043Y007975D01*
X005043Y007976D01*
X005043Y007976D01*
X005043Y007976D01*
X005043Y007975D01*
X005043Y007975D01*
X005042Y007975D01*
X005042Y007976D01*
X005043Y007976D01*
X005042Y007975D02*
X005042Y007975D01*
X005042Y007975D01*
X005042Y007975D01*
X005042Y007975D01*
X005041Y007975D02*
X005041Y007976D01*
X005041Y007976D01*
X005041Y007976D01*
X005041Y007976D01*
X005041Y007975D01*
X005041Y007975D01*
X005041Y007975D01*
X005041Y007975D01*
X005040Y007975D02*
X005040Y007975D01*
X005040Y007975D01*
X005040Y007975D01*
X005040Y007976D01*
X005040Y007976D01*
X005040Y007976D01*
X005040Y007975D01*
X005040Y007975D01*
X005039Y007975D02*
X005039Y007976D01*
X005039Y007976D01*
X005039Y007976D01*
X005039Y007976D01*
X005039Y007975D01*
X005039Y007975D01*
X005039Y007975D01*
X005039Y007975D01*
X005038Y007975D01*
X005037Y007975D01*
X005037Y007975D01*
X005037Y007976D01*
X005037Y007976D01*
X005037Y007976D01*
X005036Y007976D02*
X005036Y007975D01*
X005036Y007975D01*
X005036Y007975D01*
X005036Y007975D01*
X005036Y007975D01*
X005036Y007976D02*
X005036Y007976D01*
X005036Y007976D01*
X005035Y007975D02*
X005035Y007976D01*
X005034Y007976D01*
X005034Y007976D01*
X005034Y007976D01*
X005033Y007976D01*
X005033Y007976D01*
X005032Y007976D01*
X005032Y007976D01*
X005032Y007976D01*
X005032Y007975D01*
X005033Y007975D01*
X005034Y007975D01*
X005034Y007975D01*
X005034Y007975D01*
X005034Y007976D01*
X005035Y007975D02*
X005035Y007976D01*
X005034Y007975D02*
X005035Y007975D01*
X005033Y007975D02*
X005033Y007975D01*
X005033Y007976D01*
X005033Y007975D02*
X005032Y007975D01*
X005031Y007975D01*
X005031Y007976D01*
X005031Y007975D01*
X005032Y007976D02*
X005032Y007975D01*
X005033Y007975D02*
X005033Y007975D01*
X005033Y007975D01*
X005032Y007976D02*
X005031Y007976D01*
X005030Y007975D02*
X005030Y007976D01*
X005029Y007976D02*
X005029Y007975D01*
X005029Y007975D01*
X005029Y007975D01*
X005029Y007976D01*
X005029Y007976D01*
X005029Y007976D01*
X005029Y007976D01*
X005029Y007975D02*
X005029Y007975D01*
X005028Y007976D02*
X005028Y007975D01*
X005028Y007976D01*
X005028Y007976D01*
X005028Y007976D01*
X005028Y007975D01*
X005028Y007976D01*
X005028Y007976D01*
X005028Y007976D01*
X005027Y007976D01*
X005027Y007976D01*
X005027Y007976D01*
X005027Y007975D01*
X005027Y007975D01*
X005027Y007975D01*
X005028Y007975D01*
X005027Y007976D02*
X005027Y007975D01*
X005026Y007976D02*
X005027Y007976D01*
X005026Y007976D02*
X005026Y007976D01*
X005026Y007975D01*
X005026Y007976D02*
X005026Y007976D01*
X005025Y007975D01*
X005038Y007976D02*
X005038Y007976D01*
X005038Y007975D01*
M02*
