G75*
%MOIN*%
%OFA0B0*%
%FSLAX24Y24*%
%IPPOS*%
%LPD*%
%AMOC8*
5,1,8,0,0,1.08239X$1,22.5*
%
%ADD10R,0.0820X0.0820*%
%ADD11C,0.0820*%
%ADD12C,0.0620*%
%ADD13R,0.0237X0.0631*%
%ADD14R,0.0789X0.0789*%
%ADD15C,0.0556*%
%ADD16C,0.0867*%
%ADD17C,0.1380*%
D10*
X000725Y005628D03*
D11*
X000725Y006628D03*
X001725Y006628D03*
X001725Y005628D03*
X002725Y005628D03*
X002725Y006628D03*
X003325Y008428D03*
X004325Y008428D03*
X001725Y004228D03*
X001725Y003228D03*
D12*
X003955Y003378D02*
X004495Y003378D01*
X004495Y004378D02*
X003955Y004378D01*
X003955Y005378D02*
X004495Y005378D01*
X004495Y006378D02*
X003955Y006378D01*
X006955Y006378D02*
X007495Y006378D01*
X007495Y005378D02*
X006955Y005378D01*
X006955Y004378D02*
X007495Y004378D01*
X007495Y003378D02*
X006955Y003378D01*
D13*
X004737Y002271D03*
X004481Y002271D03*
X004225Y002271D03*
X003969Y002271D03*
X003713Y002271D03*
D14*
X003772Y001228D03*
X004678Y001228D03*
D15*
X005180Y002330D03*
X003270Y002330D03*
D16*
X002804Y001228D03*
X005646Y001228D03*
D17*
X001225Y001628D03*
X001225Y008128D03*
X007225Y008128D03*
X007225Y001628D03*
M02*
