%
M48
M72
T01C0.0236
T02C0.0300
T03C0.0320
T04C0.0400
T05C0.0433
T06C0.1300
%
T01
X3270Y2330
X5180Y2330
T02
X4225Y3378
X4225Y4378
X4225Y5378
X4225Y6378
X7225Y6378
X7225Y5378
X7225Y4378
X7225Y3378
T03
X1725Y3228
X1725Y4228
T04
X1725Y5628
X1725Y6628
X725Y6628
X725Y5628
X2725Y5628
X2725Y6628
X3325Y8428
X4325Y8428
T05
X5646Y1228
X2804Y1228
T06
X1225Y1628
X1225Y8128
X7225Y8128
X7225Y1628
M30
